G75*
%MOIN*%
%OFA0B0*%
%FSLAX24Y24*%
%IPPOS*%
%LPD*%
%AMOC8*
5,1,8,0,0,1.08239X$1,22.5*
%
%ADD10R,0.0671X0.0592*%
%ADD11R,0.0780X0.0780*%
%ADD12C,0.0780*%
%ADD13R,0.1830X0.0680*%
%ADD14R,0.0680X0.1830*%
%ADD15R,0.0592X0.0671*%
%ADD16R,0.0789X0.0710*%
%ADD17C,0.0437*%
D10*
X006050Y009376D03*
X006050Y010124D03*
X006950Y010124D03*
X006950Y009376D03*
X008050Y009876D03*
X008050Y010624D03*
X009050Y010624D03*
X009050Y009876D03*
X010250Y009876D03*
X010250Y010624D03*
X012760Y008904D03*
X012760Y008156D03*
X014490Y005924D03*
X014490Y005176D03*
X011850Y005224D03*
X011850Y004476D03*
X017360Y004956D03*
X017360Y005704D03*
X018300Y005704D03*
X018300Y004956D03*
X017850Y008176D03*
X017850Y008924D03*
D11*
X018250Y010250D03*
X008550Y007550D03*
X005250Y010250D03*
X006350Y011250D03*
D12*
X005250Y009250D03*
X006350Y008250D03*
X008550Y008550D03*
X009550Y008550D03*
X010550Y008550D03*
X010550Y007550D03*
X009550Y007550D03*
X018250Y011250D03*
D13*
X004950Y005850D03*
X004950Y003850D03*
D14*
X013150Y011250D03*
X015150Y011250D03*
D15*
X015324Y006850D03*
X014576Y006850D03*
X014576Y004250D03*
X015324Y004250D03*
X008924Y011550D03*
X008176Y011550D03*
D16*
X009650Y006401D03*
X010850Y006401D03*
X010850Y005299D03*
X009650Y005299D03*
D17*
X004950Y003850D03*
X004950Y005850D03*
X007550Y009350D03*
X009650Y009850D03*
X011750Y010650D03*
X013150Y011230D03*
X015160Y011240D03*
X016180Y007920D03*
X015550Y007550D03*
X014650Y007450D03*
X012770Y007160D03*
X013550Y005250D03*
X012550Y004950D03*
X011850Y003850D03*
X010850Y005299D03*
X009650Y005299D03*
X014030Y003700D03*
X014550Y003650D03*
X015250Y003630D03*
X015950Y003750D03*
X016610Y004610D03*
X015830Y005510D03*
X015200Y005500D03*
X017380Y006290D03*
X018470Y006290D03*
X018730Y003690D03*
X007250Y011350D03*
M02*
