G75*
%MOIN*%
%OFA0B0*%
%FSLAX24Y24*%
%IPPOS*%
%LPD*%
%AMOC8*
5,1,8,0,0,1.08239X$1,22.5*
%
%ADD10R,0.0236X0.0866*%
%ADD11R,0.0512X0.0591*%
%ADD12R,0.0157X0.0157*%
%ADD13R,0.0700X0.0700*%
%ADD14C,0.0700*%
%ADD15R,0.1750X0.0600*%
%ADD16R,0.0600X0.1750*%
%ADD17R,0.0591X0.0512*%
%ADD18R,0.0244X0.0480*%
%ADD19R,0.0709X0.0630*%
%ADD20R,0.0400X0.0250*%
%ADD21C,0.0100*%
%ADD22C,0.0357*%
%ADD23C,0.0240*%
%ADD24C,0.0160*%
D10*
X013060Y004457D03*
X013560Y004457D03*
X014060Y004457D03*
X014560Y004457D03*
X014560Y006504D03*
X014060Y006504D03*
X013560Y006504D03*
X013060Y006504D03*
D11*
X016636Y003850D03*
X017384Y003850D03*
X017614Y007490D03*
X016866Y007490D03*
X016866Y008430D03*
X017614Y008430D03*
X014124Y009650D03*
X013376Y009650D03*
X011124Y010750D03*
X010376Y010750D03*
D12*
X006345Y004237D03*
X006345Y003923D03*
X006735Y004080D03*
D13*
X008550Y007550D03*
X005250Y010250D03*
X006350Y011250D03*
X018250Y010250D03*
D14*
X018250Y011250D03*
X010550Y008550D03*
X009550Y008550D03*
X008550Y008550D03*
X009550Y007550D03*
X010550Y007550D03*
X006350Y008250D03*
X005250Y009250D03*
D15*
X004950Y005850D03*
X004950Y004850D03*
X004950Y003850D03*
D16*
X013150Y011250D03*
X014150Y011250D03*
X015150Y011250D03*
D17*
X016650Y010924D03*
X016650Y010176D03*
X015150Y009624D03*
X015150Y008876D03*
X013950Y008724D03*
X013950Y007976D03*
X015350Y006824D03*
X015350Y006076D03*
X015350Y004924D03*
X015350Y004176D03*
X018470Y004456D03*
X018470Y005204D03*
X011850Y005224D03*
X011850Y004476D03*
X011850Y006676D03*
X011850Y007424D03*
X007450Y006624D03*
X007450Y005876D03*
X006550Y005724D03*
X006550Y004976D03*
X007450Y004924D03*
X007450Y004176D03*
D18*
X008176Y010164D03*
X008924Y010164D03*
X008928Y011196D03*
X008554Y011196D03*
X008180Y011196D03*
D19*
X008450Y005201D03*
X009650Y005201D03*
X010850Y005201D03*
X010850Y004099D03*
X009650Y004099D03*
X008450Y004099D03*
D20*
X016380Y005030D03*
X016380Y005410D03*
X016380Y005790D03*
X017380Y005790D03*
X017380Y005030D03*
D21*
X004900Y003800D02*
X004200Y003800D01*
X004200Y003900D01*
X004900Y003900D01*
X004900Y003800D01*
X005000Y003800D01*
X005000Y003500D01*
X004900Y003500D01*
X004900Y003800D01*
X004900Y003843D02*
X004200Y003843D01*
X004900Y003900D02*
X004900Y004100D01*
X005000Y004100D01*
X005000Y003900D01*
X005975Y003900D01*
X005975Y004000D01*
X006116Y004000D01*
X006116Y003923D01*
X006116Y003825D01*
X006127Y003787D01*
X006146Y003753D01*
X006174Y003725D01*
X006209Y003705D01*
X006247Y003695D01*
X006345Y003695D01*
X006443Y003695D01*
X006481Y003705D01*
X006516Y003725D01*
X006544Y003753D01*
X006563Y003787D01*
X006573Y003825D01*
X006573Y003873D01*
X006594Y003852D01*
X006800Y003852D01*
X006800Y003729D01*
X006829Y003700D01*
X007071Y003700D01*
X007100Y003729D01*
X007100Y003780D01*
X007135Y003770D01*
X007400Y003770D01*
X007400Y004126D01*
X007500Y004126D01*
X007500Y003770D01*
X007765Y003770D01*
X007803Y003781D01*
X007837Y003800D01*
X007865Y003828D01*
X007885Y003862D01*
X007895Y003901D01*
X007895Y004126D01*
X007500Y004126D01*
X007500Y004226D01*
X007895Y004226D01*
X007895Y004425D01*
X007900Y004429D01*
X007974Y004504D01*
X007956Y004472D01*
X007946Y004434D01*
X007946Y004149D01*
X008400Y004149D01*
X008400Y004049D01*
X008500Y004049D01*
X008500Y003634D01*
X008824Y003634D01*
X008862Y003644D01*
X008896Y003664D01*
X008924Y003692D01*
X008944Y003726D01*
X008954Y003764D01*
X008954Y004049D01*
X008500Y004049D01*
X008500Y004149D01*
X008954Y004149D01*
X008954Y004434D01*
X008944Y004472D01*
X008924Y004506D01*
X008896Y004534D01*
X008862Y004554D01*
X008824Y004564D01*
X008500Y004564D01*
X008500Y004149D01*
X008400Y004149D01*
X008400Y004564D01*
X008076Y004564D01*
X008038Y004554D01*
X008004Y004534D01*
X008000Y004530D01*
X008000Y004600D01*
X011405Y004600D01*
X011405Y004158D01*
X011493Y004070D01*
X011580Y004070D01*
X011580Y004045D01*
X011572Y004036D01*
X011522Y003916D01*
X011522Y003785D01*
X011572Y003664D01*
X011664Y003572D01*
X011770Y003528D01*
X011793Y003500D01*
X005967Y003500D01*
X005975Y003530D01*
X005975Y003800D01*
X005000Y003800D01*
X005000Y003900D01*
X004900Y003900D01*
X004900Y003941D02*
X005000Y003941D01*
X005000Y003843D02*
X006116Y003843D01*
X006116Y003923D02*
X006345Y003923D01*
X006345Y003695D01*
X006345Y003923D01*
X006345Y003923D01*
X006345Y003923D01*
X006116Y003923D01*
X006116Y003941D02*
X005975Y003941D01*
X005975Y003744D02*
X006155Y003744D01*
X006345Y003744D02*
X006345Y003744D01*
X006345Y003843D02*
X006345Y003843D01*
X006535Y003744D02*
X006800Y003744D01*
X006800Y003843D02*
X006573Y003843D01*
X007100Y003744D02*
X007951Y003744D01*
X007956Y003726D02*
X007976Y003692D01*
X008004Y003664D01*
X008038Y003644D01*
X008076Y003634D01*
X008400Y003634D01*
X008400Y004049D01*
X007946Y004049D01*
X007946Y003764D01*
X007956Y003726D01*
X008035Y003646D02*
X005975Y003646D01*
X005975Y003547D02*
X011723Y003547D01*
X011590Y003646D02*
X011265Y003646D01*
X011262Y003644D02*
X011296Y003664D01*
X011324Y003692D01*
X011344Y003726D01*
X011354Y003764D01*
X011354Y004049D01*
X010900Y004049D01*
X010900Y003634D01*
X011224Y003634D01*
X011262Y003644D01*
X011349Y003744D02*
X011538Y003744D01*
X011522Y003843D02*
X011354Y003843D01*
X011354Y003941D02*
X011532Y003941D01*
X011575Y004040D02*
X011354Y004040D01*
X011354Y004149D02*
X011354Y004434D01*
X011344Y004472D01*
X011324Y004506D01*
X011296Y004534D01*
X011262Y004554D01*
X011224Y004564D01*
X010900Y004564D01*
X010900Y004149D01*
X011354Y004149D01*
X011425Y004138D02*
X010900Y004138D01*
X010900Y004149D02*
X010900Y004049D01*
X010800Y004049D01*
X010800Y003634D01*
X010476Y003634D01*
X010438Y003644D01*
X010404Y003664D01*
X010376Y003692D01*
X010356Y003726D01*
X010346Y003764D01*
X010346Y004049D01*
X010800Y004049D01*
X010800Y004149D01*
X010346Y004149D01*
X010346Y004434D01*
X010356Y004472D01*
X010376Y004506D01*
X010404Y004534D01*
X010438Y004554D01*
X010476Y004564D01*
X010800Y004564D01*
X010800Y004149D01*
X010900Y004149D01*
X010900Y004237D02*
X010800Y004237D01*
X010800Y004335D02*
X010900Y004335D01*
X010900Y004434D02*
X010800Y004434D01*
X010800Y004532D02*
X010900Y004532D01*
X011298Y004532D02*
X011405Y004532D01*
X011405Y004434D02*
X011354Y004434D01*
X011354Y004335D02*
X011405Y004335D01*
X011405Y004237D02*
X011354Y004237D01*
X010900Y004040D02*
X010800Y004040D01*
X010800Y004138D02*
X009700Y004138D01*
X009700Y004149D02*
X010154Y004149D01*
X010154Y004434D01*
X010144Y004472D01*
X010124Y004506D01*
X010096Y004534D01*
X010062Y004554D01*
X010024Y004564D01*
X009700Y004564D01*
X009700Y004149D01*
X009700Y004049D01*
X009700Y003634D01*
X010024Y003634D01*
X010062Y003644D01*
X010096Y003664D01*
X010124Y003692D01*
X010144Y003726D01*
X010154Y003764D01*
X010154Y004049D01*
X009700Y004049D01*
X009600Y004049D01*
X009600Y003634D01*
X009276Y003634D01*
X009238Y003644D01*
X009204Y003664D01*
X009176Y003692D01*
X009156Y003726D01*
X009146Y003764D01*
X009146Y004049D01*
X009600Y004049D01*
X009600Y004149D01*
X009146Y004149D01*
X009146Y004434D01*
X009156Y004472D01*
X009176Y004506D01*
X009204Y004534D01*
X009238Y004554D01*
X009276Y004564D01*
X009600Y004564D01*
X009600Y004149D01*
X009700Y004149D01*
X009700Y004237D02*
X009600Y004237D01*
X009600Y004335D02*
X009700Y004335D01*
X009700Y004434D02*
X009600Y004434D01*
X009600Y004532D02*
X009700Y004532D01*
X010098Y004532D02*
X010402Y004532D01*
X010346Y004434D02*
X010154Y004434D01*
X010154Y004335D02*
X010346Y004335D01*
X010346Y004237D02*
X010154Y004237D01*
X010154Y004040D02*
X010346Y004040D01*
X010346Y003941D02*
X010154Y003941D01*
X010154Y003843D02*
X010346Y003843D01*
X010351Y003744D02*
X010149Y003744D01*
X010065Y003646D02*
X010435Y003646D01*
X010800Y003646D02*
X010900Y003646D01*
X010900Y003744D02*
X010800Y003744D01*
X010800Y003843D02*
X010900Y003843D01*
X010900Y003941D02*
X010800Y003941D01*
X009700Y003941D02*
X009600Y003941D01*
X009600Y003843D02*
X009700Y003843D01*
X009700Y003744D02*
X009600Y003744D01*
X009600Y003646D02*
X009700Y003646D01*
X009700Y004040D02*
X009600Y004040D01*
X009600Y004138D02*
X008500Y004138D01*
X008500Y004040D02*
X008400Y004040D01*
X008400Y004138D02*
X007500Y004138D01*
X007500Y004040D02*
X007400Y004040D01*
X007400Y003941D02*
X007500Y003941D01*
X007500Y003843D02*
X007400Y003843D01*
X007874Y003843D02*
X007946Y003843D01*
X007946Y003941D02*
X007895Y003941D01*
X007895Y004040D02*
X007946Y004040D01*
X007946Y004237D02*
X007895Y004237D01*
X007895Y004335D02*
X007946Y004335D01*
X007946Y004434D02*
X007904Y004434D01*
X008000Y004532D02*
X008002Y004532D01*
X008400Y004532D02*
X008500Y004532D01*
X008500Y004434D02*
X008400Y004434D01*
X008400Y004335D02*
X008500Y004335D01*
X008500Y004237D02*
X008400Y004237D01*
X008400Y003941D02*
X008500Y003941D01*
X008500Y003843D02*
X008400Y003843D01*
X008400Y003744D02*
X008500Y003744D01*
X008500Y003646D02*
X008400Y003646D01*
X008865Y003646D02*
X009235Y003646D01*
X009151Y003744D02*
X008949Y003744D01*
X008954Y003843D02*
X009146Y003843D01*
X009146Y003941D02*
X008954Y003941D01*
X008954Y004040D02*
X009146Y004040D01*
X009146Y004237D02*
X008954Y004237D01*
X008954Y004335D02*
X009146Y004335D01*
X009146Y004434D02*
X008954Y004434D01*
X008898Y004532D02*
X009202Y004532D01*
X006800Y006130D02*
X006600Y006130D01*
X006600Y005774D01*
X006500Y005774D01*
X006500Y005674D01*
X006105Y005674D01*
X006105Y005600D01*
X005975Y005600D01*
X005975Y005800D01*
X005000Y005800D01*
X005000Y005600D01*
X004900Y005600D01*
X004900Y005800D01*
X005000Y005800D01*
X005000Y005900D01*
X005975Y005900D01*
X005975Y006170D01*
X005965Y006208D01*
X005945Y006242D01*
X005917Y006270D01*
X005883Y006290D01*
X005845Y006300D01*
X005000Y006300D01*
X005000Y005900D01*
X004900Y005900D01*
X004900Y005800D01*
X004200Y005800D01*
X004200Y005900D01*
X004900Y005900D01*
X004900Y006300D01*
X004200Y006300D01*
X004200Y012000D01*
X012700Y012000D01*
X012700Y011300D01*
X013100Y011300D01*
X013100Y011200D01*
X013200Y011200D01*
X013200Y010225D01*
X013400Y010225D01*
X013400Y010095D01*
X013058Y010095D01*
X012970Y010008D01*
X012970Y009293D01*
X013058Y009205D01*
X013103Y009205D01*
X013102Y009200D01*
X013106Y009163D01*
X013106Y009125D01*
X013112Y009110D01*
X013114Y009094D01*
X013133Y009060D01*
X013147Y009025D01*
X013159Y009014D01*
X013166Y009000D01*
X013196Y008976D01*
X013223Y008949D01*
X013238Y008943D01*
X013505Y008732D01*
X013505Y008406D01*
X013561Y008350D01*
X013505Y008294D01*
X013505Y007658D01*
X013593Y007570D01*
X013790Y007570D01*
X013790Y007037D01*
X013740Y007087D01*
X013380Y007087D01*
X013314Y007021D01*
X013304Y007040D01*
X013289Y007077D01*
X013279Y007087D01*
X013272Y007099D01*
X013241Y007124D01*
X013213Y007153D01*
X013200Y007158D01*
X013089Y007249D01*
X013048Y007346D01*
X012956Y007439D01*
X012835Y007489D01*
X012705Y007489D01*
X012584Y007439D01*
X012492Y007346D01*
X012442Y007226D01*
X012442Y007095D01*
X012492Y006974D01*
X012584Y006882D01*
X012705Y006832D01*
X012746Y006832D01*
X012790Y006796D01*
X012790Y005986D01*
X012831Y005887D01*
X013121Y005597D01*
X013197Y005521D01*
X013296Y005480D01*
X013755Y005480D01*
X013979Y005299D01*
X014007Y005271D01*
X014021Y005266D01*
X014032Y005256D01*
X014070Y005245D01*
X014106Y005230D01*
X014121Y005230D01*
X014135Y005226D01*
X014174Y005230D01*
X014905Y005230D01*
X014905Y004606D01*
X014961Y004550D01*
X014905Y004494D01*
X014905Y003858D01*
X014993Y003770D01*
X015548Y003770D01*
X015622Y003697D01*
X015622Y003685D01*
X015672Y003564D01*
X015736Y003500D01*
X014843Y003500D01*
X014878Y003585D01*
X014878Y003716D01*
X014830Y003832D01*
X014830Y004510D01*
X014828Y004515D01*
X014828Y004952D01*
X014740Y005040D01*
X014380Y005040D01*
X014307Y004967D01*
X014298Y004982D01*
X014270Y005010D01*
X014236Y005029D01*
X014198Y005040D01*
X014069Y005040D01*
X014069Y004466D01*
X014051Y004466D01*
X014051Y005040D01*
X013922Y005040D01*
X013884Y005029D01*
X013850Y005010D01*
X013822Y004982D01*
X013813Y004967D01*
X013740Y005040D01*
X013380Y005040D01*
X013330Y004990D01*
X013330Y005294D01*
X013289Y005393D01*
X013213Y005469D01*
X012295Y006387D01*
X012295Y006994D01*
X012280Y007010D01*
X012280Y007091D01*
X012295Y007106D01*
X012295Y007742D01*
X012280Y007758D01*
X012280Y007904D01*
X012204Y007980D01*
X011004Y009180D01*
X008196Y009180D01*
X008120Y009104D01*
X006820Y007804D01*
X006820Y006291D01*
X006800Y006271D01*
X006800Y006130D01*
X006800Y006207D02*
X005965Y006207D01*
X005975Y006108D02*
X006177Y006108D01*
X006163Y006100D02*
X006135Y006072D01*
X006115Y006038D01*
X006105Y006000D01*
X006105Y005774D01*
X006500Y005774D01*
X006500Y006130D01*
X006235Y006130D01*
X006197Y006120D01*
X006163Y006100D01*
X006107Y006010D02*
X005975Y006010D01*
X005975Y005911D02*
X006105Y005911D01*
X006105Y005813D02*
X005000Y005813D01*
X005000Y005911D02*
X004900Y005911D01*
X004900Y005813D02*
X004200Y005813D01*
X004200Y006305D02*
X006820Y006305D01*
X006820Y006404D02*
X004200Y006404D01*
X004200Y006502D02*
X006820Y006502D01*
X006820Y006601D02*
X004200Y006601D01*
X004200Y006699D02*
X006820Y006699D01*
X006820Y006798D02*
X004200Y006798D01*
X004200Y006896D02*
X006820Y006896D01*
X006820Y006995D02*
X004200Y006995D01*
X004200Y007093D02*
X006820Y007093D01*
X006820Y007192D02*
X004200Y007192D01*
X004200Y007290D02*
X006820Y007290D01*
X006820Y007389D02*
X004200Y007389D01*
X004200Y007487D02*
X006820Y007487D01*
X006820Y007586D02*
X004200Y007586D01*
X004200Y007684D02*
X006820Y007684D01*
X006820Y007783D02*
X006529Y007783D01*
X006542Y007787D02*
X006612Y007823D01*
X006676Y007869D01*
X006731Y007924D01*
X006778Y007988D01*
X006813Y008058D01*
X006838Y008133D01*
X006849Y008202D01*
X006398Y008202D01*
X006398Y007752D01*
X006467Y007763D01*
X006542Y007787D01*
X006398Y007783D02*
X006302Y007783D01*
X006302Y007752D02*
X006233Y007763D01*
X006158Y007787D01*
X006088Y007823D01*
X006024Y007869D01*
X005969Y007924D01*
X005922Y007988D01*
X005887Y008058D01*
X005862Y008133D01*
X005851Y008202D01*
X006302Y008202D01*
X006398Y008202D01*
X006398Y008299D01*
X006302Y008299D01*
X006302Y008749D01*
X006233Y008738D01*
X006158Y008714D01*
X006088Y008678D01*
X006024Y008632D01*
X005969Y008576D01*
X005922Y008512D01*
X005887Y008442D01*
X005862Y008367D01*
X005851Y008299D01*
X006302Y008299D01*
X006302Y008202D01*
X006302Y007752D01*
X006302Y007881D02*
X006398Y007881D01*
X006398Y007980D02*
X006302Y007980D01*
X006302Y008078D02*
X006398Y008078D01*
X006398Y008177D02*
X006302Y008177D01*
X006302Y008275D02*
X004200Y008275D01*
X004200Y008177D02*
X005855Y008177D01*
X005880Y008078D02*
X004200Y008078D01*
X004200Y007980D02*
X005928Y007980D01*
X006012Y007881D02*
X004200Y007881D01*
X004200Y007783D02*
X006171Y007783D01*
X006688Y007881D02*
X006897Y007881D01*
X006996Y007980D02*
X006772Y007980D01*
X006820Y008078D02*
X007094Y008078D01*
X007193Y008177D02*
X006845Y008177D01*
X006849Y008299D02*
X006838Y008367D01*
X006813Y008442D01*
X006778Y008512D01*
X006731Y008576D01*
X006676Y008632D01*
X006612Y008678D01*
X006542Y008714D01*
X006467Y008738D01*
X006398Y008749D01*
X006398Y008299D01*
X006849Y008299D01*
X006836Y008374D02*
X007390Y008374D01*
X007488Y008472D02*
X006798Y008472D01*
X006735Y008571D02*
X007587Y008571D01*
X007685Y008669D02*
X006624Y008669D01*
X006398Y008669D02*
X006302Y008669D01*
X006302Y008571D02*
X006398Y008571D01*
X006398Y008472D02*
X006302Y008472D01*
X006302Y008374D02*
X006398Y008374D01*
X006398Y008275D02*
X007291Y008275D01*
X007784Y008768D02*
X005383Y008768D01*
X005367Y008763D02*
X005442Y008787D01*
X005512Y008823D01*
X005576Y008869D01*
X005631Y008924D01*
X005678Y008988D01*
X005713Y009058D01*
X005738Y009133D01*
X005748Y009200D01*
X005300Y009200D01*
X005300Y008752D01*
X005367Y008763D01*
X005300Y008768D02*
X005200Y008768D01*
X005200Y008752D02*
X005200Y009200D01*
X005300Y009200D01*
X005300Y009300D01*
X005748Y009300D01*
X005738Y009367D01*
X005713Y009442D01*
X005678Y009512D01*
X005631Y009576D01*
X005576Y009632D01*
X005512Y009678D01*
X005442Y009714D01*
X005367Y009738D01*
X005300Y009749D01*
X005300Y009300D01*
X005200Y009300D01*
X005200Y009200D01*
X004752Y009200D01*
X004762Y009133D01*
X004787Y009058D01*
X004822Y008988D01*
X004869Y008924D01*
X004924Y008869D01*
X004988Y008823D01*
X005058Y008787D01*
X005133Y008763D01*
X005200Y008752D01*
X005117Y008768D02*
X004200Y008768D01*
X004200Y008866D02*
X004928Y008866D01*
X004839Y008965D02*
X004200Y008965D01*
X004200Y009063D02*
X004785Y009063D01*
X004758Y009162D02*
X004200Y009162D01*
X004200Y009260D02*
X005200Y009260D01*
X005200Y009300D02*
X004752Y009300D01*
X004762Y009367D01*
X004787Y009442D01*
X004822Y009512D01*
X004869Y009576D01*
X004924Y009632D01*
X004988Y009678D01*
X005058Y009714D01*
X005133Y009738D01*
X005200Y009749D01*
X005200Y009300D01*
X005200Y009359D02*
X005300Y009359D01*
X005300Y009457D02*
X005200Y009457D01*
X005200Y009556D02*
X005300Y009556D01*
X005300Y009654D02*
X005200Y009654D01*
X004955Y009654D02*
X004200Y009654D01*
X004200Y009556D02*
X004854Y009556D01*
X004794Y009457D02*
X004200Y009457D01*
X004200Y009359D02*
X004761Y009359D01*
X005200Y009162D02*
X005300Y009162D01*
X005300Y009260D02*
X007232Y009260D01*
X007222Y009285D02*
X007272Y009164D01*
X007364Y009072D01*
X007485Y009022D01*
X007615Y009022D01*
X007736Y009072D01*
X007828Y009164D01*
X007878Y009285D01*
X007878Y009297D01*
X008356Y009774D01*
X008360Y009774D01*
X008448Y009862D01*
X008448Y010467D01*
X008360Y010555D01*
X007992Y010555D01*
X007904Y010467D01*
X007904Y010086D01*
X007497Y009679D01*
X007485Y009679D01*
X007364Y009629D01*
X007272Y009536D01*
X007222Y009416D01*
X007222Y009285D01*
X007222Y009359D02*
X005739Y009359D01*
X005706Y009457D02*
X007239Y009457D01*
X007291Y009556D02*
X005646Y009556D01*
X005545Y009654D02*
X007426Y009654D01*
X007571Y009753D02*
X005665Y009753D01*
X005662Y009750D02*
X005750Y009838D01*
X005750Y010662D01*
X005662Y010750D01*
X004838Y010750D01*
X004750Y010662D01*
X004750Y009838D01*
X004838Y009750D01*
X005662Y009750D01*
X005750Y009851D02*
X007669Y009851D01*
X007768Y009950D02*
X005750Y009950D01*
X005750Y010048D02*
X007866Y010048D01*
X007904Y010147D02*
X005750Y010147D01*
X005750Y010245D02*
X007904Y010245D01*
X007904Y010344D02*
X005750Y010344D01*
X005750Y010442D02*
X007904Y010442D01*
X007978Y010541D02*
X005750Y010541D01*
X005750Y010639D02*
X009970Y010639D01*
X009970Y010700D02*
X009970Y010435D01*
X009980Y010397D01*
X010000Y010363D01*
X010028Y010335D01*
X010062Y010315D01*
X010100Y010305D01*
X010326Y010305D01*
X010326Y010700D01*
X010426Y010700D01*
X010426Y010305D01*
X010652Y010305D01*
X010690Y010315D01*
X010724Y010335D01*
X010750Y010361D01*
X010806Y010305D01*
X011442Y010305D01*
X011530Y010393D01*
X011530Y010406D01*
X011564Y010372D01*
X011685Y010322D01*
X011815Y010322D01*
X011936Y010372D01*
X012028Y010464D01*
X012078Y010585D01*
X012078Y010716D01*
X012028Y010836D01*
X012700Y010836D01*
X012700Y010738D02*
X012069Y010738D01*
X012078Y010639D02*
X012700Y010639D01*
X012700Y010541D02*
X012060Y010541D01*
X012006Y010442D02*
X012700Y010442D01*
X012700Y010355D02*
X012710Y010317D01*
X012730Y010283D01*
X012758Y010255D01*
X012792Y010235D01*
X012830Y010225D01*
X013100Y010225D01*
X013100Y011200D01*
X012700Y011200D01*
X012700Y010355D01*
X012703Y010344D02*
X011868Y010344D01*
X011632Y010344D02*
X011481Y010344D01*
X012028Y010836D02*
X011936Y010929D01*
X011815Y010979D01*
X011685Y010979D01*
X011664Y010970D01*
X011656Y010973D01*
X011620Y010990D01*
X011606Y010991D01*
X011593Y010996D01*
X011553Y010995D01*
X011530Y010996D01*
X011530Y011108D01*
X011442Y011195D01*
X010806Y011195D01*
X010750Y011140D01*
X010724Y011166D01*
X010690Y011185D01*
X010652Y011195D01*
X010426Y011195D01*
X010426Y010800D01*
X010326Y010800D01*
X010326Y010700D01*
X009970Y010700D01*
X009970Y010800D02*
X010326Y010800D01*
X010326Y011195D01*
X010100Y011195D01*
X010062Y011185D01*
X010028Y011166D01*
X010000Y011138D01*
X009980Y011103D01*
X009970Y011065D01*
X009970Y010800D01*
X009970Y010836D02*
X009143Y010836D01*
X009112Y010806D02*
X009200Y010894D01*
X009200Y011498D01*
X009198Y011500D01*
X009198Y011565D01*
X009203Y011601D01*
X009198Y011618D01*
X009198Y011636D01*
X009184Y011670D01*
X009174Y011705D01*
X009164Y011719D01*
X009157Y011735D01*
X009131Y011761D01*
X009096Y011807D01*
X009089Y011823D01*
X009063Y011849D01*
X009041Y011878D01*
X009025Y011887D01*
X009013Y011899D01*
X008979Y011913D01*
X008948Y011931D01*
X008930Y011933D01*
X008914Y011940D01*
X008877Y011940D01*
X008841Y011945D01*
X008824Y011940D01*
X007562Y011940D01*
X007551Y011944D01*
X007509Y011940D01*
X007466Y011940D01*
X007455Y011936D01*
X007444Y011935D01*
X007406Y011915D01*
X007367Y011899D01*
X007359Y011891D01*
X007348Y011885D01*
X007321Y011853D01*
X007291Y011823D01*
X007287Y011812D01*
X007168Y011672D01*
X007064Y011629D01*
X006972Y011536D01*
X006922Y011416D01*
X006922Y011285D01*
X006972Y011164D01*
X007064Y011072D01*
X007185Y011022D01*
X007315Y011022D01*
X007436Y011072D01*
X007528Y011164D01*
X007578Y011285D01*
X007578Y011321D01*
X007645Y011400D01*
X007908Y011400D01*
X007908Y010894D01*
X007996Y010806D01*
X008364Y010806D01*
X008374Y010816D01*
X008412Y010806D01*
X008543Y010806D01*
X008543Y011185D01*
X008565Y011185D01*
X008565Y010806D01*
X008696Y010806D01*
X008734Y010816D01*
X008744Y010806D01*
X009112Y010806D01*
X009200Y010935D02*
X009970Y010935D01*
X009970Y011033D02*
X009200Y011033D01*
X009200Y011132D02*
X009997Y011132D01*
X010326Y011132D02*
X010426Y011132D01*
X010426Y011033D02*
X010326Y011033D01*
X010326Y010935D02*
X010426Y010935D01*
X010426Y010836D02*
X010326Y010836D01*
X010326Y010738D02*
X005675Y010738D01*
X005850Y010838D02*
X005938Y010750D01*
X006762Y010750D01*
X006850Y010838D01*
X006850Y011662D01*
X006762Y011750D01*
X005938Y011750D01*
X005850Y011662D01*
X005850Y010838D01*
X005852Y010836D02*
X004200Y010836D01*
X004200Y010738D02*
X004825Y010738D01*
X004750Y010639D02*
X004200Y010639D01*
X004200Y010541D02*
X004750Y010541D01*
X004750Y010442D02*
X004200Y010442D01*
X004200Y010344D02*
X004750Y010344D01*
X004750Y010245D02*
X004200Y010245D01*
X004200Y010147D02*
X004750Y010147D01*
X004750Y010048D02*
X004200Y010048D01*
X004200Y009950D02*
X004750Y009950D01*
X004750Y009851D02*
X004200Y009851D01*
X004200Y009753D02*
X004835Y009753D01*
X005200Y009063D02*
X005300Y009063D01*
X005300Y008965D02*
X005200Y008965D01*
X005200Y008866D02*
X005300Y008866D01*
X005572Y008866D02*
X007882Y008866D01*
X007981Y008965D02*
X005661Y008965D01*
X005715Y009063D02*
X007385Y009063D01*
X007274Y009162D02*
X005742Y009162D01*
X006076Y008669D02*
X004200Y008669D01*
X004200Y008571D02*
X005965Y008571D01*
X005902Y008472D02*
X004200Y008472D01*
X004200Y008374D02*
X005864Y008374D01*
X007715Y009063D02*
X008079Y009063D01*
X008178Y009162D02*
X007826Y009162D01*
X007868Y009260D02*
X013003Y009260D01*
X012970Y009359D02*
X007940Y009359D01*
X008039Y009457D02*
X012970Y009457D01*
X012970Y009556D02*
X009797Y009556D01*
X009836Y009572D02*
X009715Y009522D01*
X009585Y009522D01*
X009464Y009572D01*
X009430Y009606D01*
X008996Y009606D01*
X008897Y009647D01*
X008821Y009723D01*
X008770Y009774D01*
X008740Y009774D01*
X008652Y009862D01*
X008652Y010467D01*
X008740Y010555D01*
X009108Y010555D01*
X009196Y010467D01*
X009196Y010146D01*
X009506Y010146D01*
X009585Y010179D01*
X009715Y010179D01*
X009836Y010129D01*
X009928Y010036D01*
X009978Y009916D01*
X009978Y009785D01*
X009928Y009664D01*
X009836Y009572D01*
X009918Y009654D02*
X012970Y009654D01*
X012970Y009753D02*
X009965Y009753D01*
X009978Y009851D02*
X012970Y009851D01*
X012970Y009950D02*
X009964Y009950D01*
X009916Y010048D02*
X013011Y010048D01*
X013100Y010245D02*
X013200Y010245D01*
X013200Y010344D02*
X013100Y010344D01*
X013100Y010442D02*
X013200Y010442D01*
X013200Y010541D02*
X013100Y010541D01*
X013100Y010639D02*
X013200Y010639D01*
X013200Y010738D02*
X013100Y010738D01*
X013100Y010836D02*
X013200Y010836D01*
X013200Y010935D02*
X013100Y010935D01*
X013100Y011033D02*
X013200Y011033D01*
X013200Y011132D02*
X013100Y011132D01*
X013100Y011230D02*
X009200Y011230D01*
X009200Y011329D02*
X012700Y011329D01*
X012700Y011427D02*
X009200Y011427D01*
X009198Y011526D02*
X012700Y011526D01*
X012700Y011624D02*
X009198Y011624D01*
X009162Y011723D02*
X012700Y011723D01*
X012700Y011821D02*
X009090Y011821D01*
X008968Y011920D02*
X012700Y011920D01*
X013100Y011920D02*
X013200Y011920D01*
X013200Y012000D02*
X013100Y012000D01*
X013100Y011300D01*
X013200Y011300D01*
X013400Y011300D01*
X013400Y011200D01*
X013200Y011200D01*
X013200Y011300D01*
X013200Y012000D01*
X013200Y011821D02*
X013100Y011821D01*
X013100Y011723D02*
X013200Y011723D01*
X013200Y011624D02*
X013100Y011624D01*
X013100Y011526D02*
X013200Y011526D01*
X013200Y011427D02*
X013100Y011427D01*
X013100Y011329D02*
X013200Y011329D01*
X013200Y011230D02*
X013400Y011230D01*
X012700Y011132D02*
X011506Y011132D01*
X011530Y011033D02*
X012700Y011033D01*
X012700Y010935D02*
X011921Y010935D01*
X012775Y010245D02*
X009196Y010245D01*
X009196Y010147D02*
X009508Y010147D01*
X009792Y010147D02*
X013400Y010147D01*
X013106Y009162D02*
X011022Y009162D01*
X011121Y009063D02*
X013131Y009063D01*
X013208Y008965D02*
X011219Y008965D01*
X011318Y008866D02*
X013335Y008866D01*
X013460Y008768D02*
X011416Y008768D01*
X011515Y008669D02*
X013505Y008669D01*
X013505Y008571D02*
X011613Y008571D01*
X011712Y008472D02*
X013505Y008472D01*
X013537Y008374D02*
X011810Y008374D01*
X011909Y008275D02*
X013505Y008275D01*
X013505Y008177D02*
X012007Y008177D01*
X012106Y008078D02*
X013505Y008078D01*
X013505Y007980D02*
X012204Y007980D01*
X012280Y007881D02*
X013505Y007881D01*
X013505Y007783D02*
X012280Y007783D01*
X012295Y007684D02*
X013505Y007684D01*
X013577Y007586D02*
X012295Y007586D01*
X012295Y007487D02*
X012701Y007487D01*
X012839Y007487D02*
X013790Y007487D01*
X013790Y007389D02*
X013006Y007389D01*
X013072Y007290D02*
X013790Y007290D01*
X013790Y007192D02*
X013159Y007192D01*
X013275Y007093D02*
X013790Y007093D01*
X014395Y007660D02*
X014395Y008294D01*
X014339Y008350D01*
X014395Y008406D01*
X014395Y008596D01*
X014705Y008600D01*
X014705Y008558D01*
X014793Y008470D01*
X015507Y008470D01*
X015595Y008558D01*
X015595Y009194D01*
X015539Y009250D01*
X015565Y009276D01*
X015585Y009310D01*
X015595Y009349D01*
X015595Y009574D01*
X015200Y009574D01*
X015200Y009674D01*
X015595Y009674D01*
X015595Y009900D01*
X015585Y009938D01*
X015565Y009972D01*
X015537Y010000D01*
X015503Y010020D01*
X015465Y010030D01*
X015200Y010030D01*
X015200Y009674D01*
X015100Y009674D01*
X015100Y010030D01*
X015000Y010030D01*
X015000Y010225D01*
X015100Y010225D01*
X015100Y011200D01*
X015200Y011200D01*
X015200Y010225D01*
X015470Y010225D01*
X015508Y010235D01*
X015542Y010255D01*
X015570Y010283D01*
X015590Y010317D01*
X015600Y010355D01*
X015600Y011200D01*
X015200Y011200D01*
X015200Y011300D01*
X015600Y011300D01*
X015600Y012000D01*
X018900Y012000D01*
X018900Y005538D01*
X018827Y005610D01*
X018740Y005610D01*
X018740Y006096D01*
X018748Y006104D01*
X018798Y006225D01*
X018798Y006356D01*
X018748Y006476D01*
X018656Y006569D01*
X018535Y006619D01*
X018405Y006619D01*
X018284Y006569D01*
X018200Y006485D01*
X018200Y006604D01*
X018159Y006703D01*
X017880Y006982D01*
X017880Y007045D01*
X017932Y007045D01*
X018020Y007133D01*
X018020Y007848D01*
X017932Y007935D01*
X017884Y007935D01*
X017884Y007985D01*
X017932Y007985D01*
X018020Y008073D01*
X018020Y008788D01*
X017932Y008875D01*
X017296Y008875D01*
X017240Y008820D01*
X017184Y008875D01*
X016548Y008875D01*
X016460Y008788D01*
X016460Y008250D01*
X016186Y008250D01*
X016182Y008249D01*
X016115Y008249D01*
X015994Y008199D01*
X015902Y008106D01*
X015852Y007986D01*
X015852Y007855D01*
X015902Y007734D01*
X015994Y007642D01*
X016115Y007592D01*
X016245Y007592D01*
X016366Y007642D01*
X016434Y007710D01*
X016460Y007710D01*
X016460Y007133D01*
X016523Y007070D01*
X016416Y007070D01*
X016317Y007029D01*
X016241Y006953D01*
X015795Y006507D01*
X015795Y007142D01*
X015707Y007230D01*
X015647Y007230D01*
X015653Y007237D01*
X015736Y007272D01*
X015828Y007364D01*
X015878Y007485D01*
X015878Y007616D01*
X015828Y007736D01*
X015736Y007829D01*
X015615Y007879D01*
X015485Y007879D01*
X015364Y007829D01*
X015272Y007736D01*
X015222Y007616D01*
X015222Y007562D01*
X015046Y007328D01*
X015021Y007303D01*
X015014Y007285D01*
X015002Y007269D01*
X014993Y007236D01*
X014990Y007227D01*
X014905Y007142D01*
X014905Y006506D01*
X014961Y006450D01*
X014905Y006394D01*
X014905Y005770D01*
X014255Y005770D01*
X014069Y005921D01*
X014240Y005921D01*
X014310Y005991D01*
X014380Y005921D01*
X014740Y005921D01*
X014828Y006009D01*
X014828Y006446D01*
X014830Y006450D01*
X014830Y007169D01*
X014836Y007172D01*
X014928Y007264D01*
X014978Y007385D01*
X014978Y007516D01*
X014928Y007636D01*
X014836Y007729D01*
X014715Y007779D01*
X014585Y007779D01*
X014464Y007729D01*
X014395Y007660D01*
X014395Y007684D02*
X014420Y007684D01*
X014395Y007783D02*
X015318Y007783D01*
X015250Y007684D02*
X014880Y007684D01*
X014949Y007586D02*
X015222Y007586D01*
X015165Y007487D02*
X014978Y007487D01*
X014978Y007389D02*
X015091Y007389D01*
X015016Y007290D02*
X014939Y007290D01*
X014954Y007192D02*
X014856Y007192D01*
X014830Y007093D02*
X014905Y007093D01*
X014905Y006995D02*
X014830Y006995D01*
X014830Y006896D02*
X014905Y006896D01*
X014905Y006798D02*
X014830Y006798D01*
X014830Y006699D02*
X014905Y006699D01*
X014905Y006601D02*
X014830Y006601D01*
X014830Y006502D02*
X014909Y006502D01*
X014914Y006404D02*
X014828Y006404D01*
X014828Y006305D02*
X014905Y006305D01*
X014905Y006207D02*
X014828Y006207D01*
X014828Y006108D02*
X014905Y006108D01*
X014905Y006010D02*
X014828Y006010D01*
X014905Y005911D02*
X014080Y005911D01*
X014203Y005813D02*
X014905Y005813D01*
X014905Y005222D02*
X013330Y005222D01*
X013330Y005123D02*
X014905Y005123D01*
X014905Y005025D02*
X014755Y005025D01*
X014828Y004926D02*
X014905Y004926D01*
X014905Y004828D02*
X014828Y004828D01*
X014828Y004729D02*
X014905Y004729D01*
X014905Y004631D02*
X014828Y004631D01*
X014828Y004532D02*
X014943Y004532D01*
X014905Y004434D02*
X014830Y004434D01*
X014830Y004335D02*
X014905Y004335D01*
X014905Y004237D02*
X014830Y004237D01*
X014830Y004138D02*
X014905Y004138D01*
X014905Y004040D02*
X014830Y004040D01*
X014830Y003941D02*
X014905Y003941D01*
X014920Y003843D02*
X014830Y003843D01*
X014867Y003744D02*
X015574Y003744D01*
X015638Y003646D02*
X014878Y003646D01*
X014863Y003547D02*
X015689Y003547D01*
X016575Y004357D02*
X016460Y004472D01*
X016460Y004755D01*
X016642Y004755D01*
X016730Y004843D01*
X016730Y005217D01*
X016720Y005228D01*
X016730Y005265D01*
X016730Y005398D01*
X016393Y005398D01*
X016393Y005423D01*
X016730Y005423D01*
X016730Y005555D01*
X016720Y005593D01*
X016730Y005603D01*
X016730Y005977D01*
X016642Y006065D01*
X016118Y006065D01*
X016113Y006060D01*
X016112Y006060D01*
X016582Y006530D01*
X017156Y006530D01*
X017102Y006476D01*
X017052Y006356D01*
X017052Y006225D01*
X017102Y006104D01*
X017110Y006096D01*
X017110Y006057D01*
X017030Y005977D01*
X017030Y005603D01*
X017118Y005515D01*
X017483Y005515D01*
X017273Y005305D01*
X017118Y005305D01*
X017030Y005217D01*
X017030Y004843D01*
X017118Y004755D01*
X017642Y004755D01*
X017730Y004843D01*
X017730Y004998D01*
X018025Y005293D01*
X018025Y004886D01*
X018081Y004830D01*
X018025Y004774D01*
X018025Y004728D01*
X017855Y004730D01*
X017854Y004730D01*
X017801Y004730D01*
X017749Y004731D01*
X017748Y004730D01*
X017006Y004730D01*
X016907Y004689D01*
X016575Y004357D01*
X016498Y004434D02*
X016652Y004434D01*
X016750Y004532D02*
X016460Y004532D01*
X016460Y004631D02*
X016849Y004631D01*
X017004Y004729D02*
X016460Y004729D01*
X016715Y004828D02*
X017045Y004828D01*
X017030Y004926D02*
X016730Y004926D01*
X016730Y005025D02*
X017030Y005025D01*
X017030Y005123D02*
X016730Y005123D01*
X016726Y005222D02*
X017034Y005222D01*
X017288Y005320D02*
X016730Y005320D01*
X016730Y005517D02*
X017116Y005517D01*
X017030Y005616D02*
X016730Y005616D01*
X016730Y005714D02*
X017030Y005714D01*
X017030Y005813D02*
X016730Y005813D01*
X016730Y005911D02*
X017030Y005911D01*
X017062Y006010D02*
X016698Y006010D01*
X016357Y006305D02*
X017052Y006305D01*
X017059Y006207D02*
X016258Y006207D01*
X016160Y006108D02*
X017100Y006108D01*
X017072Y006404D02*
X016455Y006404D01*
X016554Y006502D02*
X017128Y006502D01*
X016500Y007093D02*
X015795Y007093D01*
X015795Y006995D02*
X016283Y006995D01*
X016184Y006896D02*
X015795Y006896D01*
X015795Y006798D02*
X016086Y006798D01*
X015987Y006699D02*
X015795Y006699D01*
X015795Y006601D02*
X015889Y006601D01*
X015746Y007192D02*
X016460Y007192D01*
X016460Y007290D02*
X015754Y007290D01*
X015839Y007389D02*
X016460Y007389D01*
X016460Y007487D02*
X015878Y007487D01*
X015878Y007586D02*
X016460Y007586D01*
X016460Y007684D02*
X016408Y007684D01*
X015952Y007684D02*
X015850Y007684D01*
X015881Y007783D02*
X015782Y007783D01*
X015852Y007881D02*
X014395Y007881D01*
X014395Y007980D02*
X015852Y007980D01*
X015890Y008078D02*
X014395Y008078D01*
X014395Y008177D02*
X015972Y008177D01*
X016460Y008275D02*
X014395Y008275D01*
X014363Y008374D02*
X016460Y008374D01*
X016460Y008472D02*
X015509Y008472D01*
X015595Y008571D02*
X016460Y008571D01*
X016460Y008669D02*
X015595Y008669D01*
X015595Y008768D02*
X016460Y008768D01*
X016539Y008866D02*
X015595Y008866D01*
X015595Y008965D02*
X018900Y008965D01*
X018900Y009063D02*
X015595Y009063D01*
X015595Y009162D02*
X018900Y009162D01*
X018900Y009260D02*
X015549Y009260D01*
X015595Y009359D02*
X018900Y009359D01*
X018900Y009457D02*
X015595Y009457D01*
X015595Y009556D02*
X018900Y009556D01*
X018900Y009654D02*
X015200Y009654D01*
X015200Y009753D02*
X015100Y009753D01*
X015100Y009851D02*
X015200Y009851D01*
X015200Y009950D02*
X015100Y009950D01*
X015000Y010048D02*
X016205Y010048D01*
X016205Y009950D02*
X015578Y009950D01*
X015595Y009851D02*
X016212Y009851D01*
X016205Y009858D02*
X016293Y009770D01*
X017007Y009770D01*
X017095Y009858D01*
X017095Y009906D01*
X017750Y009906D01*
X017750Y009838D01*
X017838Y009750D01*
X018662Y009750D01*
X018750Y009838D01*
X018750Y010662D01*
X018662Y010750D01*
X017838Y010750D01*
X017750Y010662D01*
X017750Y010446D01*
X017095Y010446D01*
X017095Y010494D01*
X017039Y010550D01*
X017065Y010576D01*
X017085Y010610D01*
X017095Y010649D01*
X017095Y010874D01*
X016700Y010874D01*
X016700Y010974D01*
X017095Y010974D01*
X017095Y011200D01*
X017085Y011238D01*
X017065Y011272D01*
X017037Y011300D01*
X017003Y011320D01*
X016965Y011330D01*
X016700Y011330D01*
X016700Y010974D01*
X016600Y010974D01*
X016600Y010874D01*
X016205Y010874D01*
X016205Y010649D01*
X016215Y010610D01*
X016235Y010576D01*
X016261Y010550D01*
X016205Y010494D01*
X016205Y009858D01*
X016205Y010147D02*
X015000Y010147D01*
X015100Y010245D02*
X015200Y010245D01*
X015200Y010344D02*
X015100Y010344D01*
X015100Y010442D02*
X015200Y010442D01*
X015200Y010541D02*
X015100Y010541D01*
X015100Y010639D02*
X015200Y010639D01*
X015200Y010738D02*
X015100Y010738D01*
X015100Y010836D02*
X015200Y010836D01*
X015200Y010935D02*
X015100Y010935D01*
X015100Y011033D02*
X015200Y011033D01*
X015200Y011132D02*
X015100Y011132D01*
X015200Y011230D02*
X016213Y011230D01*
X016215Y011238D02*
X016205Y011200D01*
X016205Y010974D01*
X016600Y010974D01*
X016600Y011330D01*
X016335Y011330D01*
X016297Y011320D01*
X016263Y011300D01*
X016235Y011272D01*
X016215Y011238D01*
X016205Y011132D02*
X015600Y011132D01*
X015600Y011033D02*
X016205Y011033D01*
X016330Y011329D02*
X015600Y011329D01*
X015600Y011427D02*
X017782Y011427D01*
X017787Y011442D02*
X017762Y011367D01*
X017752Y011300D01*
X018200Y011300D01*
X018200Y011200D01*
X018300Y011200D01*
X018300Y010752D01*
X018367Y010763D01*
X018442Y010787D01*
X018512Y010823D01*
X018576Y010869D01*
X018631Y010924D01*
X018678Y010988D01*
X018713Y011058D01*
X018738Y011133D01*
X018748Y011200D01*
X018300Y011200D01*
X018300Y011300D01*
X018748Y011300D01*
X018738Y011367D01*
X018713Y011442D01*
X018678Y011512D01*
X018631Y011576D01*
X018576Y011632D01*
X018512Y011678D01*
X018442Y011714D01*
X018367Y011738D01*
X018300Y011749D01*
X018300Y011300D01*
X018200Y011300D01*
X018200Y011749D01*
X018133Y011738D01*
X018058Y011714D01*
X017988Y011678D01*
X017924Y011632D01*
X017869Y011576D01*
X017822Y011512D01*
X017787Y011442D01*
X017832Y011526D02*
X015600Y011526D01*
X015600Y011624D02*
X017917Y011624D01*
X018086Y011723D02*
X015600Y011723D01*
X015600Y011821D02*
X018900Y011821D01*
X018900Y011723D02*
X018414Y011723D01*
X018300Y011723D02*
X018200Y011723D01*
X018200Y011624D02*
X018300Y011624D01*
X018300Y011526D02*
X018200Y011526D01*
X018200Y011427D02*
X018300Y011427D01*
X018300Y011329D02*
X018200Y011329D01*
X018200Y011230D02*
X017087Y011230D01*
X017095Y011132D02*
X017763Y011132D01*
X017762Y011133D02*
X017787Y011058D01*
X017822Y010988D01*
X017869Y010924D01*
X017924Y010869D01*
X017988Y010823D01*
X018058Y010787D01*
X018133Y010763D01*
X018200Y010752D01*
X018200Y011200D01*
X017752Y011200D01*
X017762Y011133D01*
X017799Y011033D02*
X017095Y011033D01*
X016970Y011329D02*
X017756Y011329D01*
X017861Y010935D02*
X016700Y010935D01*
X016700Y011033D02*
X016600Y011033D01*
X016600Y010935D02*
X015600Y010935D01*
X015600Y010836D02*
X016205Y010836D01*
X016205Y010738D02*
X015600Y010738D01*
X015600Y010639D02*
X016207Y010639D01*
X016251Y010541D02*
X015600Y010541D01*
X015600Y010442D02*
X016205Y010442D01*
X016205Y010344D02*
X015597Y010344D01*
X015525Y010245D02*
X016205Y010245D01*
X015595Y009753D02*
X017835Y009753D01*
X017750Y009851D02*
X017088Y009851D01*
X017049Y010541D02*
X017750Y010541D01*
X017750Y010639D02*
X017093Y010639D01*
X017095Y010738D02*
X017825Y010738D01*
X017969Y010836D02*
X017095Y010836D01*
X016700Y011132D02*
X016600Y011132D01*
X016600Y011230D02*
X016700Y011230D01*
X016700Y011329D02*
X016600Y011329D01*
X015600Y011920D02*
X018900Y011920D01*
X018900Y011624D02*
X018583Y011624D01*
X018668Y011526D02*
X018900Y011526D01*
X018900Y011427D02*
X018718Y011427D01*
X018744Y011329D02*
X018900Y011329D01*
X018900Y011230D02*
X018300Y011230D01*
X018300Y011132D02*
X018200Y011132D01*
X018200Y011033D02*
X018300Y011033D01*
X018300Y010935D02*
X018200Y010935D01*
X018200Y010836D02*
X018300Y010836D01*
X018531Y010836D02*
X018900Y010836D01*
X018900Y010738D02*
X018675Y010738D01*
X018750Y010639D02*
X018900Y010639D01*
X018900Y010541D02*
X018750Y010541D01*
X018750Y010442D02*
X018900Y010442D01*
X018900Y010344D02*
X018750Y010344D01*
X018750Y010245D02*
X018900Y010245D01*
X018900Y010147D02*
X018750Y010147D01*
X018750Y010048D02*
X018900Y010048D01*
X018900Y009950D02*
X018750Y009950D01*
X018750Y009851D02*
X018900Y009851D01*
X018900Y009753D02*
X018665Y009753D01*
X018900Y008866D02*
X017941Y008866D01*
X018020Y008768D02*
X018900Y008768D01*
X018900Y008669D02*
X018020Y008669D01*
X018020Y008571D02*
X018900Y008571D01*
X018900Y008472D02*
X018020Y008472D01*
X018020Y008374D02*
X018900Y008374D01*
X018900Y008275D02*
X018020Y008275D01*
X018020Y008177D02*
X018900Y008177D01*
X018900Y008078D02*
X018020Y008078D01*
X017884Y007980D02*
X018900Y007980D01*
X018900Y007881D02*
X017986Y007881D01*
X018020Y007783D02*
X018900Y007783D01*
X018900Y007684D02*
X018020Y007684D01*
X018020Y007586D02*
X018900Y007586D01*
X018900Y007487D02*
X018020Y007487D01*
X018020Y007389D02*
X018900Y007389D01*
X018900Y007290D02*
X018020Y007290D01*
X018020Y007192D02*
X018900Y007192D01*
X018900Y007093D02*
X017980Y007093D01*
X017880Y006995D02*
X018900Y006995D01*
X018900Y006896D02*
X017966Y006896D01*
X018064Y006798D02*
X018900Y006798D01*
X018900Y006699D02*
X018161Y006699D01*
X018200Y006601D02*
X018361Y006601D01*
X018218Y006502D02*
X018200Y006502D01*
X018579Y006601D02*
X018900Y006601D01*
X018900Y006502D02*
X018722Y006502D01*
X018778Y006404D02*
X018900Y006404D01*
X018900Y006305D02*
X018798Y006305D01*
X018791Y006207D02*
X018900Y006207D01*
X018900Y006108D02*
X018750Y006108D01*
X018740Y006010D02*
X018900Y006010D01*
X018900Y005911D02*
X018740Y005911D01*
X018740Y005813D02*
X018900Y005813D01*
X018900Y005714D02*
X018740Y005714D01*
X018740Y005616D02*
X018900Y005616D01*
X018025Y005222D02*
X017953Y005222D01*
X018025Y005123D02*
X017855Y005123D01*
X017756Y005025D02*
X018025Y005025D01*
X018025Y004926D02*
X017730Y004926D01*
X017715Y004828D02*
X018078Y004828D01*
X018025Y004729D02*
X017914Y004729D01*
X017799Y004190D02*
X018025Y004188D01*
X018025Y004138D01*
X018113Y004050D01*
X018827Y004050D01*
X018900Y004123D01*
X018900Y003500D01*
X017781Y003500D01*
X017790Y003535D01*
X017790Y003800D01*
X017434Y003800D01*
X017434Y003900D01*
X017790Y003900D01*
X017790Y004165D01*
X017783Y004190D01*
X017799Y004190D01*
X017790Y004138D02*
X018025Y004138D01*
X017790Y004040D02*
X018900Y004040D01*
X018900Y003941D02*
X017790Y003941D01*
X017790Y003744D02*
X018900Y003744D01*
X018900Y003646D02*
X017790Y003646D01*
X017790Y003547D02*
X018900Y003547D01*
X018900Y003843D02*
X017434Y003843D01*
X017387Y005419D02*
X016393Y005419D01*
X014365Y005025D02*
X014244Y005025D01*
X014069Y005025D02*
X014051Y005025D01*
X014051Y004926D02*
X014069Y004926D01*
X014069Y004828D02*
X014051Y004828D01*
X014051Y004729D02*
X014069Y004729D01*
X014069Y004631D02*
X014051Y004631D01*
X014051Y004532D02*
X014069Y004532D01*
X014069Y004448D02*
X014069Y003874D01*
X014198Y003874D01*
X014236Y003884D01*
X014270Y003903D01*
X014290Y003923D01*
X014290Y003855D01*
X014272Y003836D01*
X014222Y003716D01*
X014222Y003585D01*
X014257Y003500D01*
X013582Y003500D01*
X013789Y003707D01*
X013830Y003806D01*
X013830Y003923D01*
X013850Y003903D01*
X013884Y003884D01*
X013922Y003874D01*
X014051Y003874D01*
X014051Y004448D01*
X014069Y004448D01*
X014069Y004434D02*
X014051Y004434D01*
X014051Y004335D02*
X014069Y004335D01*
X014069Y004237D02*
X014051Y004237D01*
X014051Y004138D02*
X014069Y004138D01*
X014069Y004040D02*
X014051Y004040D01*
X014051Y003941D02*
X014069Y003941D01*
X014278Y003843D02*
X013830Y003843D01*
X013804Y003744D02*
X014233Y003744D01*
X014222Y003646D02*
X013727Y003646D01*
X013629Y003547D02*
X014237Y003547D01*
X013191Y003874D02*
X013168Y003850D01*
X012205Y003850D01*
X012178Y003881D01*
X012178Y003916D01*
X012128Y004036D01*
X012120Y004045D01*
X012120Y004070D01*
X012207Y004070D01*
X012295Y004158D01*
X012295Y004794D01*
X012239Y004850D01*
X012265Y004876D01*
X012285Y004910D01*
X012295Y004949D01*
X012295Y005174D01*
X011900Y005174D01*
X011900Y005274D01*
X012295Y005274D01*
X012295Y005500D01*
X012285Y005538D01*
X012269Y005565D01*
X012280Y005576D01*
X012280Y005576D01*
X012280Y005576D01*
X012280Y005630D01*
X012280Y005638D01*
X012790Y005128D01*
X012790Y004403D01*
X012792Y004398D01*
X012792Y003961D01*
X012880Y003874D01*
X013191Y003874D01*
X012812Y003941D02*
X012168Y003941D01*
X012125Y004040D02*
X012792Y004040D01*
X012792Y004138D02*
X012275Y004138D01*
X012295Y004237D02*
X012792Y004237D01*
X012792Y004335D02*
X012295Y004335D01*
X012295Y004434D02*
X012790Y004434D01*
X012790Y004532D02*
X012295Y004532D01*
X012295Y004631D02*
X012790Y004631D01*
X012790Y004729D02*
X012295Y004729D01*
X012262Y004828D02*
X012790Y004828D01*
X012790Y004926D02*
X012289Y004926D01*
X012295Y005025D02*
X012790Y005025D01*
X012790Y005123D02*
X012295Y005123D01*
X012295Y005320D02*
X012598Y005320D01*
X012697Y005222D02*
X011900Y005222D01*
X012295Y005419D02*
X012500Y005419D01*
X012401Y005517D02*
X012291Y005517D01*
X012280Y005616D02*
X012303Y005616D01*
X012672Y006010D02*
X012790Y006010D01*
X012790Y006108D02*
X012574Y006108D01*
X012475Y006207D02*
X012790Y006207D01*
X012790Y006305D02*
X012377Y006305D01*
X012295Y006404D02*
X012790Y006404D01*
X012790Y006502D02*
X012295Y006502D01*
X012295Y006601D02*
X012790Y006601D01*
X012790Y006699D02*
X012295Y006699D01*
X012295Y006798D02*
X012787Y006798D01*
X012570Y006896D02*
X012295Y006896D01*
X012295Y006995D02*
X012483Y006995D01*
X012442Y007093D02*
X012282Y007093D01*
X012295Y007192D02*
X012442Y007192D01*
X012468Y007290D02*
X012295Y007290D01*
X012295Y007389D02*
X012534Y007389D01*
X012771Y005911D02*
X012821Y005911D01*
X012869Y005813D02*
X012906Y005813D01*
X012968Y005714D02*
X013004Y005714D01*
X013066Y005616D02*
X013103Y005616D01*
X013165Y005517D02*
X013207Y005517D01*
X013263Y005419D02*
X013831Y005419D01*
X013953Y005320D02*
X013319Y005320D01*
X013330Y005025D02*
X013365Y005025D01*
X013755Y005025D02*
X013876Y005025D01*
X014395Y008472D02*
X014791Y008472D01*
X014705Y008571D02*
X014395Y008571D01*
X017193Y008866D02*
X017287Y008866D01*
X018639Y010935D02*
X018900Y010935D01*
X018900Y011033D02*
X018701Y011033D01*
X018737Y011132D02*
X018900Y011132D01*
X015200Y011300D02*
X015100Y011300D01*
X015100Y012000D01*
X015200Y012000D01*
X015200Y011300D01*
X015200Y011329D02*
X015100Y011329D01*
X015100Y011427D02*
X015200Y011427D01*
X015200Y011526D02*
X015100Y011526D01*
X015100Y011624D02*
X015200Y011624D01*
X015200Y011723D02*
X015100Y011723D01*
X015100Y011821D02*
X015200Y011821D01*
X015200Y011920D02*
X015100Y011920D01*
X010767Y010344D02*
X010733Y010344D01*
X010426Y010344D02*
X010326Y010344D01*
X010326Y010442D02*
X010426Y010442D01*
X010426Y010541D02*
X010326Y010541D01*
X010326Y010639D02*
X010426Y010639D01*
X010019Y010344D02*
X009196Y010344D01*
X009196Y010442D02*
X009970Y010442D01*
X009970Y010541D02*
X009122Y010541D01*
X008726Y010541D02*
X008374Y010541D01*
X008448Y010442D02*
X008652Y010442D01*
X008652Y010344D02*
X008448Y010344D01*
X008448Y010245D02*
X008652Y010245D01*
X008652Y010147D02*
X008448Y010147D01*
X008448Y010048D02*
X008652Y010048D01*
X008652Y009950D02*
X008448Y009950D01*
X008437Y009851D02*
X008663Y009851D01*
X008792Y009753D02*
X008334Y009753D01*
X008236Y009654D02*
X008890Y009654D01*
X009503Y009556D02*
X008137Y009556D01*
X007965Y010836D02*
X006848Y010836D01*
X006850Y010935D02*
X007908Y010935D01*
X007908Y011033D02*
X007343Y011033D01*
X007496Y011132D02*
X007908Y011132D01*
X007908Y011230D02*
X007556Y011230D01*
X007585Y011329D02*
X007908Y011329D01*
X008543Y011132D02*
X008565Y011132D01*
X008565Y011033D02*
X008543Y011033D01*
X008543Y010935D02*
X008565Y010935D01*
X008565Y010836D02*
X008543Y010836D01*
X007290Y011821D02*
X004200Y011821D01*
X004200Y011723D02*
X005910Y011723D01*
X005850Y011624D02*
X004200Y011624D01*
X004200Y011526D02*
X005850Y011526D01*
X005850Y011427D02*
X004200Y011427D01*
X004200Y011329D02*
X005850Y011329D01*
X005850Y011230D02*
X004200Y011230D01*
X004200Y011132D02*
X005850Y011132D01*
X005850Y011033D02*
X004200Y011033D01*
X004200Y010935D02*
X005850Y010935D01*
X006850Y011033D02*
X007157Y011033D01*
X007004Y011132D02*
X006850Y011132D01*
X006850Y011230D02*
X006944Y011230D01*
X006922Y011329D02*
X006850Y011329D01*
X006850Y011427D02*
X006926Y011427D01*
X006967Y011526D02*
X006850Y011526D01*
X006850Y011624D02*
X007060Y011624D01*
X007211Y011723D02*
X006790Y011723D01*
X007415Y011920D02*
X004200Y011920D01*
X004900Y006207D02*
X005000Y006207D01*
X005000Y006108D02*
X004900Y006108D01*
X004900Y006010D02*
X005000Y006010D01*
X005000Y005714D02*
X004900Y005714D01*
X004900Y005616D02*
X005000Y005616D01*
X005975Y005616D02*
X006105Y005616D01*
X005975Y005714D02*
X006500Y005714D01*
X006500Y005813D02*
X006600Y005813D01*
X006600Y005911D02*
X006500Y005911D01*
X006500Y006010D02*
X006600Y006010D01*
X006600Y006108D02*
X006500Y006108D01*
X005000Y004040D02*
X004900Y004040D01*
X004900Y003744D02*
X005000Y003744D01*
X005000Y003646D02*
X004900Y003646D01*
X004900Y003547D02*
X005000Y003547D01*
D22*
X004950Y003850D03*
X004950Y005850D03*
X007550Y009350D03*
X009650Y009850D03*
X011750Y010650D03*
X013150Y011230D03*
X015160Y011240D03*
X016180Y007920D03*
X015550Y007550D03*
X014650Y007450D03*
X012770Y007160D03*
X013550Y005250D03*
X012550Y004950D03*
X011850Y003850D03*
X010850Y005299D03*
X009650Y005299D03*
X014030Y003700D03*
X014550Y003650D03*
X015250Y003630D03*
X015950Y003750D03*
X016610Y004610D03*
X015830Y005510D03*
X015200Y005500D03*
X017380Y006290D03*
X018470Y006290D03*
X018730Y003690D03*
X007250Y011350D03*
D23*
X007520Y011670D01*
X008180Y011670D01*
X008180Y011316D01*
X008180Y011196D01*
X008180Y011670D02*
X008860Y011670D01*
X008928Y011582D01*
X008928Y011196D01*
X008924Y010164D02*
X008924Y010002D01*
X009050Y009876D01*
X009624Y009876D01*
X009650Y009850D01*
X011124Y010750D02*
X011550Y010724D01*
X011750Y010650D01*
X013376Y009650D02*
X013376Y009178D01*
X013950Y008724D01*
X014238Y008864D01*
X015150Y008876D01*
X014150Y009676D02*
X014124Y009650D01*
X014150Y009676D02*
X014150Y011250D01*
X016650Y010176D02*
X018176Y010176D01*
X018250Y010250D01*
X017614Y008430D02*
X017614Y007490D01*
X017610Y007486D01*
X017610Y007020D01*
X017535Y006945D01*
X017930Y006550D01*
X017930Y005580D01*
X017380Y005030D01*
X017060Y004460D02*
X016670Y004070D01*
X016670Y003884D01*
X016636Y003850D01*
X016636Y003914D01*
X016190Y004360D01*
X016190Y005020D01*
X016180Y005030D01*
X016380Y005030D01*
X016180Y005030D02*
X015990Y005030D01*
X015884Y004924D01*
X015350Y004924D01*
X015200Y005500D02*
X014160Y005500D01*
X013850Y005750D01*
X013350Y005750D01*
X013060Y006040D01*
X013060Y006504D01*
X013060Y006924D01*
X012770Y007160D01*
X011850Y007424D02*
X011850Y007750D01*
X011050Y008550D01*
X010550Y008550D01*
X009550Y008550D01*
X008550Y008550D01*
X008250Y008550D01*
X007450Y007750D01*
X007450Y006624D01*
X007450Y005876D02*
X007450Y004924D01*
X007498Y004976D02*
X006550Y004976D01*
X006550Y004550D01*
X006345Y004345D01*
X005950Y004850D02*
X006050Y004950D01*
X006524Y004950D01*
X006550Y004976D01*
X005950Y004850D02*
X004950Y004850D01*
X008450Y005201D02*
X008450Y007450D01*
X008550Y007550D01*
X007550Y009350D02*
X008176Y009976D01*
X008176Y010164D01*
X011850Y006676D02*
X011850Y006450D01*
X013060Y005240D01*
X013060Y004457D01*
X013560Y004457D02*
X013560Y003860D01*
X013280Y003580D01*
X012080Y003580D01*
X011850Y003850D01*
X011850Y004476D01*
X010850Y005201D02*
X010850Y005299D01*
X009650Y005299D02*
X009650Y005201D01*
X014060Y006504D02*
X014060Y007866D01*
X013950Y007976D01*
X014650Y007450D02*
X014560Y007260D01*
X014560Y006504D01*
X015250Y006924D02*
X015350Y006824D01*
X015250Y006924D02*
X015250Y007150D01*
X015550Y007550D01*
X016180Y007920D02*
X016240Y007980D01*
X016866Y007980D01*
X016866Y008430D01*
X016866Y007980D02*
X016866Y007490D01*
X017535Y006945D02*
X017390Y006800D01*
X016470Y006800D01*
X015746Y006076D01*
X015350Y006076D01*
X015830Y005510D02*
X016070Y005790D01*
X016380Y005790D01*
X017380Y005790D02*
X017380Y006290D01*
X018470Y006290D02*
X018470Y005204D01*
X018470Y004456D02*
X018256Y004456D01*
X017800Y004460D01*
X017060Y004460D01*
X015950Y003750D02*
X015450Y004250D01*
X015324Y004250D01*
X015350Y004224D01*
X015350Y004176D01*
X014560Y004457D02*
X014560Y003660D01*
X014550Y003650D01*
D24*
X007498Y004976D02*
X007450Y004924D01*
X006345Y004345D02*
X006345Y004237D01*
M02*
