%
M48
M72
T01C0.0197
T02C0.0394
T03C0.0433
%
T01
X4950Y3850
X4950Y5850
X7550Y9350
X9650Y9850
X11750Y10650
X13150Y11230
X15160Y11240
X16180Y7920
X15550Y7550
X14650Y7450
X12770Y7160
X13550Y5250
X12550Y4950
X11850Y3850
X10850Y5299
X9650Y5299
X14030Y3700
X14550Y3650
X15250Y3630
X15950Y3750
X16610Y4610
X15830Y5510
X15200Y5500
X17380Y6290
X18470Y6290
X18730Y3690
X7250Y11350
T02
X6350Y11250
X8550Y8550
X9550Y8550
X10550Y8550
X10550Y7550
X9550Y7550
X8550Y7550
X6350Y8250
T03
X5250Y9250
X5250Y10250
X18250Y10250
X18250Y11250
M30
