G75*
%MOIN*%
%OFA0B0*%
%FSLAX24Y24*%
%IPPOS*%
%LPD*%
%AMOC8*
5,1,8,0,0,1.08239X$1,22.5*
%
%ADD10C,0.0000*%
%ADD11C,0.0080*%
%ADD12C,0.0100*%
%ADD13C,0.0060*%
D10*
X004050Y003350D02*
X004050Y012150D01*
X019050Y012150D01*
X019050Y003350D01*
X004050Y003350D01*
D11*
X004459Y004680D02*
X004459Y005101D01*
X004599Y005101D02*
X004319Y005101D01*
X004779Y005101D02*
X004779Y004680D01*
X005060Y005101D01*
X005060Y004680D01*
X005240Y004680D02*
X005240Y004960D01*
X005380Y005101D01*
X005520Y004960D01*
X005520Y004680D01*
X005520Y004890D02*
X005240Y004890D01*
X013730Y011140D02*
X013730Y011421D01*
X013800Y011491D01*
X013940Y011491D01*
X014010Y011421D01*
X014010Y011140D01*
X013940Y011070D01*
X013800Y011070D01*
X013730Y011140D01*
X014191Y011070D02*
X014471Y011070D01*
X014471Y011491D01*
X014588Y009911D02*
X014728Y009911D01*
X014658Y009911D02*
X014658Y009560D01*
X014728Y009490D01*
X014798Y009490D01*
X014868Y009560D01*
X015049Y009560D02*
X015119Y009490D01*
X015329Y009490D01*
X015329Y009911D01*
X015119Y009911D01*
X015049Y009841D01*
X015049Y009770D01*
X015119Y009700D01*
X015329Y009700D01*
X015119Y009700D02*
X015049Y009630D01*
X015049Y009560D01*
X015059Y009211D02*
X015059Y008790D01*
X015199Y008790D02*
X014918Y008790D01*
X014738Y008790D02*
X014458Y008790D01*
X014598Y008790D02*
X014598Y009211D01*
X014738Y009070D01*
X015059Y009211D02*
X015199Y009070D01*
X015359Y008860D02*
X015359Y008790D01*
X015429Y008790D01*
X015429Y008860D01*
X015359Y008860D01*
X015609Y008790D02*
X015889Y008790D01*
X015749Y008790D02*
X015749Y009211D01*
X015889Y009070D01*
X016039Y009490D02*
X016180Y009490D01*
X016250Y009560D01*
X016250Y009630D01*
X016180Y009700D01*
X016039Y009700D01*
X015969Y009630D01*
X015969Y009560D01*
X016039Y009490D01*
X016039Y009700D02*
X015969Y009770D01*
X015969Y009841D01*
X016039Y009911D01*
X016180Y009911D01*
X016250Y009841D01*
X016250Y009770D01*
X016180Y009700D01*
X016430Y009490D02*
X016430Y009911D01*
X016710Y009911D02*
X016430Y009490D01*
X016710Y009490D02*
X016710Y009911D01*
X016810Y009211D02*
X016810Y008930D01*
X016670Y008790D01*
X016530Y008930D01*
X016530Y009211D01*
X016700Y008511D02*
X016910Y008300D01*
X016630Y008300D01*
X016700Y008090D02*
X016700Y008511D01*
X016450Y008090D02*
X016169Y008511D01*
X015989Y008441D02*
X015919Y008511D01*
X015779Y008511D01*
X015709Y008441D01*
X015709Y008370D01*
X015989Y008090D01*
X015709Y008090D01*
X015529Y008160D02*
X015249Y008441D01*
X015249Y008160D01*
X015319Y008090D01*
X015459Y008090D01*
X015529Y008160D01*
X015529Y008441D01*
X015459Y008511D01*
X015319Y008511D01*
X015249Y008441D01*
X015068Y008370D02*
X014928Y008511D01*
X014928Y008090D01*
X015068Y008090D02*
X014788Y008090D01*
X014608Y008160D02*
X014538Y008090D01*
X014398Y008090D01*
X014328Y008160D01*
X014328Y008441D01*
X014398Y008511D01*
X014538Y008511D01*
X014608Y008441D01*
X014608Y008370D01*
X014538Y008300D01*
X014328Y008300D01*
X015579Y009490D02*
X015509Y009560D01*
X015509Y009841D01*
X015579Y009911D01*
X015719Y009911D01*
X015789Y009841D01*
X015789Y009560D01*
X015719Y009490D01*
X015579Y009490D01*
D12*
X017450Y009300D02*
X017450Y007800D01*
X018250Y007800D01*
X018250Y009300D01*
X017450Y009300D01*
X015700Y007250D02*
X014200Y007250D01*
X014200Y006450D01*
X015700Y006450D01*
X015700Y007250D01*
X014890Y006300D02*
X014090Y006300D01*
X014090Y004800D01*
X014890Y004800D01*
X014890Y006300D01*
X014200Y004650D02*
X014200Y003850D01*
X015700Y003850D01*
X015700Y004650D01*
X014200Y004650D01*
X012250Y004100D02*
X011450Y004100D01*
X011450Y005600D01*
X012250Y005600D01*
X012250Y004100D01*
X011350Y004850D02*
X011350Y006850D01*
X010350Y006850D01*
X010350Y004850D01*
X011350Y004850D01*
X010150Y004850D02*
X010150Y006850D01*
X009150Y006850D01*
X009150Y004850D01*
X010150Y004850D01*
X012360Y007780D02*
X013160Y007780D01*
X013160Y009280D01*
X012360Y009280D01*
X012360Y007780D01*
X010650Y009450D02*
X009850Y009450D01*
X009850Y011050D01*
X010650Y011050D01*
X010650Y009450D01*
X009450Y009500D02*
X008650Y009500D01*
X008650Y011000D01*
X009450Y011000D01*
X009450Y009500D01*
X008450Y009500D02*
X007650Y009500D01*
X007650Y011000D01*
X008450Y011000D01*
X008450Y009500D01*
X007350Y009000D02*
X007350Y010500D01*
X006550Y010500D01*
X006550Y009000D01*
X007350Y009000D01*
X006450Y009000D02*
X006450Y010500D01*
X005650Y010500D01*
X005650Y009000D01*
X006450Y009000D01*
X007800Y011150D02*
X007800Y011950D01*
X009300Y011950D01*
X009300Y011150D01*
X007800Y011150D01*
X016960Y006080D02*
X016960Y004580D01*
X017760Y004580D01*
X017760Y006080D01*
X016960Y006080D01*
X017900Y006080D02*
X018700Y006080D01*
X018700Y004580D01*
X017900Y004580D01*
X017900Y006080D01*
D13*
X016830Y005722D02*
X016830Y005609D01*
X016774Y005552D01*
X016717Y005552D01*
X016660Y005609D01*
X016660Y005779D01*
X016547Y005779D02*
X016774Y005779D01*
X016830Y005722D01*
X016547Y005779D02*
X016490Y005722D01*
X016490Y005609D01*
X016547Y005552D01*
X016490Y005410D02*
X016490Y005184D01*
X016490Y005297D02*
X016830Y005297D01*
X016717Y005184D01*
X016774Y005042D02*
X016830Y004985D01*
X016830Y004872D01*
X016774Y004815D01*
X016547Y004815D01*
X016490Y004872D01*
X016490Y004985D01*
X016547Y005042D01*
X017887Y004404D02*
X017887Y004347D01*
X017943Y004290D01*
X018057Y004290D01*
X018113Y004347D01*
X018113Y004404D01*
X018057Y004460D01*
X017943Y004460D01*
X017887Y004404D01*
X017943Y004290D02*
X017887Y004234D01*
X017887Y004177D01*
X017943Y004120D01*
X018057Y004120D01*
X018113Y004177D01*
X018113Y004234D01*
X018057Y004290D01*
X018255Y004120D02*
X018482Y004120D01*
X018368Y004120D02*
X018368Y004460D01*
X018482Y004347D01*
X018623Y004404D02*
X018680Y004460D01*
X018793Y004460D01*
X018850Y004404D01*
X018850Y004177D01*
X018793Y004120D01*
X018680Y004120D01*
X018623Y004177D01*
X016134Y006600D02*
X016190Y006657D01*
X016190Y006770D01*
X016134Y006827D01*
X016134Y006969D02*
X016077Y006969D01*
X016020Y007025D01*
X016020Y007195D01*
X015907Y007195D02*
X016134Y007195D01*
X016190Y007139D01*
X016190Y007025D01*
X016134Y006969D01*
X015907Y006969D02*
X015850Y007025D01*
X015850Y007139D01*
X015907Y007195D01*
X015907Y006827D02*
X015850Y006770D01*
X015850Y006657D01*
X015907Y006600D01*
X016134Y006600D01*
X013950Y006144D02*
X013950Y005917D01*
X013893Y005860D01*
X013780Y005860D01*
X013723Y005917D01*
X013582Y005917D02*
X013582Y005860D01*
X013582Y005917D02*
X013355Y006144D01*
X013355Y006200D01*
X013582Y006200D01*
X013723Y006144D02*
X013780Y006200D01*
X013893Y006200D01*
X013950Y006144D01*
X012200Y006014D02*
X012200Y005787D01*
X012143Y005730D01*
X012030Y005730D01*
X011973Y005787D01*
X011832Y005787D02*
X011775Y005730D01*
X011662Y005730D01*
X011605Y005787D01*
X011605Y005900D01*
X011662Y005957D01*
X011718Y005957D01*
X011832Y005900D01*
X011832Y006070D01*
X011605Y006070D01*
X011462Y006390D02*
X011462Y006730D01*
X011632Y006560D01*
X011405Y006560D01*
X011773Y006390D02*
X012000Y006390D01*
X012000Y006730D01*
X012030Y006070D02*
X012143Y006070D01*
X012200Y006014D01*
X012030Y006070D02*
X011973Y006014D01*
X013542Y004420D02*
X013485Y004364D01*
X013485Y004307D01*
X013542Y004250D01*
X013655Y004250D01*
X013712Y004307D01*
X013712Y004364D01*
X013655Y004420D01*
X013542Y004420D01*
X013542Y004250D02*
X013485Y004194D01*
X013485Y004137D01*
X013542Y004080D01*
X013655Y004080D01*
X013712Y004137D01*
X013712Y004194D01*
X013655Y004250D01*
X013853Y004137D02*
X013910Y004080D01*
X014023Y004080D01*
X014080Y004137D01*
X014080Y004364D01*
X014023Y004420D01*
X013910Y004420D01*
X013853Y004364D01*
X013594Y008120D02*
X013367Y008120D01*
X013310Y008177D01*
X013310Y008290D01*
X013367Y008347D01*
X013310Y008489D02*
X013310Y008715D01*
X013310Y008602D02*
X013650Y008602D01*
X013537Y008489D01*
X013594Y008347D02*
X013650Y008290D01*
X013650Y008177D01*
X013594Y008120D01*
X013650Y008857D02*
X013650Y009084D01*
X013594Y009084D01*
X013367Y008857D01*
X013310Y008857D01*
X011120Y009840D02*
X011120Y010010D01*
X011064Y010067D01*
X010950Y010067D01*
X010893Y010010D01*
X010893Y009840D01*
X010780Y009840D02*
X011120Y009840D01*
X010893Y009954D02*
X010780Y010067D01*
X010780Y010209D02*
X010780Y010435D01*
X010780Y010322D02*
X011120Y010322D01*
X011007Y010209D01*
X011064Y010577D02*
X010837Y010577D01*
X011064Y010804D01*
X010837Y010804D01*
X010780Y010747D01*
X010780Y010634D01*
X010837Y010577D01*
X011064Y010577D02*
X011120Y010634D01*
X011120Y010747D01*
X011064Y010804D01*
X010360Y011447D02*
X010303Y011390D01*
X010190Y011390D01*
X010133Y011447D01*
X009992Y011390D02*
X009765Y011390D01*
X009878Y011390D02*
X009878Y011730D01*
X009992Y011617D01*
X010133Y011674D02*
X010190Y011730D01*
X010303Y011730D01*
X010360Y011674D01*
X010360Y011447D01*
X009623Y011560D02*
X009397Y011560D01*
X009453Y011390D02*
X009453Y011730D01*
X009623Y011560D01*
X009563Y009390D02*
X009620Y009334D01*
X009620Y009107D01*
X009563Y009050D01*
X009450Y009050D01*
X009393Y009107D01*
X009252Y009050D02*
X009025Y009050D01*
X009138Y009050D02*
X009138Y009390D01*
X009252Y009277D01*
X009393Y009334D02*
X009450Y009390D01*
X009563Y009390D01*
X008883Y009220D02*
X008713Y009220D01*
X008657Y009164D01*
X008657Y009107D01*
X008713Y009050D01*
X008827Y009050D01*
X008883Y009107D01*
X008883Y009220D01*
X008770Y009334D01*
X008657Y009390D01*
X008120Y009384D02*
X008120Y009157D01*
X007950Y009157D01*
X008007Y009270D01*
X008007Y009327D01*
X007950Y009384D01*
X007837Y009384D01*
X007780Y009327D01*
X007780Y009214D01*
X007837Y009157D01*
X007780Y009015D02*
X007780Y008789D01*
X007780Y008902D02*
X008120Y008902D01*
X008007Y008789D01*
X008064Y008647D02*
X008120Y008590D01*
X008120Y008477D01*
X008064Y008420D01*
X007837Y008420D01*
X007780Y008477D01*
X007780Y008590D01*
X007837Y008647D01*
X007320Y008674D02*
X007320Y008787D01*
X007264Y008844D01*
X007207Y008844D01*
X007150Y008787D01*
X007093Y008844D01*
X007037Y008844D01*
X006980Y008787D01*
X006980Y008674D01*
X007037Y008617D01*
X006980Y008475D02*
X006980Y008249D01*
X006980Y008362D02*
X007320Y008362D01*
X007207Y008249D01*
X007264Y008107D02*
X007320Y008050D01*
X007320Y007937D01*
X007264Y007880D01*
X007037Y007880D01*
X006980Y007937D01*
X006980Y008050D01*
X007037Y008107D01*
X007264Y008617D02*
X007320Y008674D01*
X007150Y008730D02*
X007150Y008787D01*
X005910Y008827D02*
X005910Y008714D01*
X005854Y008657D01*
X005910Y008827D02*
X005854Y008884D01*
X005797Y008884D01*
X005570Y008657D01*
X005570Y008884D01*
X005570Y008515D02*
X005570Y008289D01*
X005570Y008402D02*
X005910Y008402D01*
X005797Y008289D01*
X005854Y008147D02*
X005910Y008090D01*
X005910Y007977D01*
X005854Y007920D01*
X005627Y007920D01*
X005570Y007977D01*
X005570Y008090D01*
X005627Y008147D01*
X008451Y006674D02*
X008451Y006617D01*
X008678Y006390D01*
X008451Y006390D01*
X008820Y006390D02*
X009047Y006390D01*
X009047Y006730D01*
X008678Y006674D02*
X008622Y006730D01*
X008508Y006730D01*
X008451Y006674D01*
X018380Y008137D02*
X018380Y008250D01*
X018437Y008307D01*
X018380Y008449D02*
X018380Y008675D01*
X018380Y008562D02*
X018720Y008562D01*
X018607Y008449D01*
X018664Y008307D02*
X018720Y008250D01*
X018720Y008137D01*
X018664Y008080D01*
X018437Y008080D01*
X018380Y008137D01*
X018380Y008817D02*
X018380Y009044D01*
X018380Y008930D02*
X018720Y008930D01*
X018607Y008817D01*
M02*
