G75*
%MOIN*%
%OFA0B0*%
%FSLAX24Y24*%
%IPPOS*%
%LPD*%
%AMOC8*
5,1,8,0,0,1.08239X$1,22.5*
%
%ADD10C,0.0000*%
%ADD11C,0.0080*%
%ADD12C,0.0060*%
%ADD13C,0.0070*%
%ADD14C,0.0100*%
%ADD15C,0.0050*%
D10*
X004050Y003350D02*
X004050Y012150D01*
X019050Y012150D01*
X019050Y003350D01*
X004050Y003350D01*
D11*
X004620Y006370D02*
X004620Y006650D01*
X004760Y006791D01*
X004900Y006650D01*
X004900Y006370D01*
X005080Y006370D02*
X005080Y006791D01*
X005361Y006370D01*
X005361Y006791D01*
X005541Y006791D02*
X005821Y006791D01*
X005681Y006791D02*
X005681Y006370D01*
X004900Y006580D02*
X004620Y006580D01*
X004680Y008090D02*
X004820Y008090D01*
X004890Y008160D01*
X004890Y008300D01*
X004750Y008300D01*
X004610Y008160D02*
X004680Y008090D01*
X004610Y008160D02*
X004610Y008441D01*
X004680Y008511D01*
X004820Y008511D01*
X004890Y008441D01*
X005070Y008511D02*
X005351Y008090D01*
X005351Y008511D01*
X005531Y008511D02*
X005741Y008511D01*
X005811Y008441D01*
X005811Y008160D01*
X005741Y008090D01*
X005531Y008090D01*
X005531Y008511D01*
X005070Y008511D02*
X005070Y008090D01*
X004610Y008590D02*
X004190Y008590D01*
X004190Y008800D01*
X004260Y008870D01*
X004400Y008870D01*
X004470Y008800D01*
X004470Y008590D01*
X004610Y009051D02*
X004190Y009051D01*
X004470Y009191D02*
X004610Y009331D01*
X004190Y009331D01*
X004190Y009511D02*
X004190Y009721D01*
X004260Y009791D01*
X004400Y009791D01*
X004470Y009721D01*
X004470Y009511D01*
X004610Y009511D02*
X004190Y009511D01*
X004470Y009651D02*
X004610Y009791D01*
X004470Y009191D02*
X004610Y009051D01*
X004610Y010432D02*
X004610Y010572D01*
X004610Y010502D02*
X004190Y010502D01*
X004190Y010432D02*
X004190Y010572D01*
X004190Y010739D02*
X004610Y011019D01*
X004190Y011019D01*
X004190Y010739D02*
X004610Y010739D01*
X004840Y011100D02*
X005120Y011100D01*
X005300Y011030D02*
X005441Y010890D01*
X005581Y011030D01*
X005581Y011311D01*
X005300Y011311D02*
X005300Y011030D01*
X004980Y010960D02*
X004980Y011241D01*
X006970Y010411D02*
X006970Y010271D01*
X007040Y010201D01*
X007040Y010020D02*
X006970Y009950D01*
X006970Y009740D01*
X007390Y009740D01*
X007390Y009950D01*
X007320Y010020D01*
X007040Y010020D01*
X007390Y010201D02*
X007110Y010481D01*
X007040Y010481D01*
X006970Y010411D01*
X007390Y010481D02*
X007390Y010201D01*
X007570Y008902D02*
X007850Y008902D01*
X007920Y008832D01*
X007920Y008691D01*
X007850Y008621D01*
X007570Y008621D01*
X007500Y008691D01*
X007500Y008832D01*
X007570Y008902D01*
X007780Y008762D02*
X007920Y008902D01*
X007920Y008441D02*
X007920Y008161D01*
X007500Y008161D01*
X007500Y008441D01*
X007710Y008301D02*
X007710Y008161D01*
X007710Y007981D02*
X007570Y007981D01*
X007500Y007911D01*
X007500Y007701D01*
X007920Y007701D01*
X007780Y007701D02*
X007780Y007911D01*
X007710Y007981D01*
X007780Y007841D02*
X007920Y007981D01*
X007500Y007520D02*
X007500Y007240D01*
X007920Y007240D01*
X007710Y007240D02*
X007710Y007380D01*
X011380Y008390D02*
X011380Y008871D01*
X011620Y008871D01*
X011700Y008791D01*
X011700Y008630D01*
X011620Y008550D01*
X011380Y008550D01*
X011540Y008550D02*
X011700Y008390D01*
X011896Y008470D02*
X011976Y008390D01*
X012136Y008390D01*
X012216Y008470D01*
X012411Y008550D02*
X012571Y008390D01*
X012732Y008550D01*
X012732Y008871D01*
X012927Y008871D02*
X013167Y008871D01*
X013247Y008791D01*
X013247Y008630D01*
X013167Y008550D01*
X012927Y008550D01*
X012927Y008390D02*
X012927Y008871D01*
X012732Y009190D02*
X012571Y009030D01*
X012411Y009190D01*
X012411Y009511D01*
X012216Y009511D02*
X012216Y009030D01*
X012056Y009190D01*
X011896Y009030D01*
X011896Y009511D01*
X011700Y009511D02*
X011700Y009030D01*
X011540Y009190D01*
X011380Y009030D01*
X011380Y009511D01*
X011976Y008871D02*
X011896Y008791D01*
X011896Y008470D01*
X011976Y008871D02*
X012136Y008871D01*
X012216Y008791D01*
X012411Y008871D02*
X012411Y008550D01*
X013087Y008550D02*
X013247Y008390D01*
X012732Y009190D02*
X012732Y009511D01*
X012570Y010780D02*
X012150Y010780D01*
X012570Y010780D02*
X012570Y011060D01*
X012500Y011241D02*
X012570Y011311D01*
X012570Y011451D01*
X012500Y011521D01*
X012220Y011521D01*
X012150Y011451D01*
X012150Y011311D01*
X012220Y011241D01*
X012500Y011241D01*
X011261Y011270D02*
X011121Y011410D01*
X011191Y011410D02*
X010981Y011410D01*
X010981Y011270D02*
X010981Y011691D01*
X011191Y011691D01*
X011261Y011621D01*
X011261Y011480D01*
X011191Y011410D01*
X010801Y011270D02*
X010801Y011691D01*
X010520Y011691D02*
X010520Y011270D01*
X010661Y011410D01*
X010801Y011270D01*
X010340Y011480D02*
X010270Y011410D01*
X010060Y011410D01*
X010060Y011270D02*
X010060Y011691D01*
X010270Y011691D01*
X010340Y011621D01*
X010340Y011480D01*
X017210Y011442D02*
X017630Y011442D01*
X017560Y011121D02*
X017210Y011121D01*
X017210Y011301D02*
X017210Y011582D01*
X017560Y011121D02*
X017630Y011051D01*
X017630Y010911D01*
X017560Y010841D01*
X017210Y010841D01*
X017280Y010661D02*
X017210Y010591D01*
X017210Y010451D01*
X017280Y010381D01*
X017560Y010381D01*
X017630Y010451D01*
X017630Y010591D01*
X017560Y010661D01*
X017280Y010661D01*
X017210Y010200D02*
X017490Y010200D01*
X017630Y010060D01*
X017490Y009920D01*
X017210Y009920D01*
D12*
X016918Y009630D02*
X016805Y009630D01*
X016748Y009574D01*
X016748Y009517D01*
X016805Y009460D01*
X016975Y009460D01*
X016975Y009347D02*
X016975Y009574D01*
X016918Y009630D01*
X016975Y009347D02*
X016918Y009290D01*
X016805Y009290D01*
X016748Y009347D01*
X016607Y009290D02*
X016493Y009404D01*
X016550Y009404D02*
X016380Y009404D01*
X016380Y009290D02*
X016380Y009630D01*
X016550Y009630D01*
X016607Y009574D01*
X016607Y009460D01*
X016550Y009404D01*
X015963Y010330D02*
X015736Y010330D01*
X015680Y010387D01*
X015680Y010500D01*
X015736Y010557D01*
X015850Y010557D02*
X015850Y010444D01*
X015850Y010557D02*
X015963Y010557D01*
X016020Y010500D01*
X016020Y010387D01*
X015963Y010330D01*
X015907Y010699D02*
X015907Y010869D01*
X015850Y010925D01*
X015736Y010925D01*
X015680Y010869D01*
X015680Y010699D01*
X016020Y010699D01*
X015963Y011067D02*
X016020Y011124D01*
X016020Y011237D01*
X015963Y011294D01*
X015907Y011294D01*
X015850Y011237D01*
X015850Y011124D01*
X015793Y011067D01*
X015736Y011067D01*
X015680Y011124D01*
X015680Y011237D01*
X015736Y011294D01*
X015680Y011435D02*
X015680Y011605D01*
X015736Y011662D01*
X015963Y011662D01*
X016020Y011605D01*
X016020Y011435D01*
X015680Y011435D01*
X015736Y011803D02*
X015963Y011803D01*
X016020Y011860D01*
X016020Y011974D01*
X015963Y012030D01*
X015736Y012030D01*
X015680Y011974D01*
X015680Y011860D01*
X015736Y011803D01*
X012855Y010004D02*
X012798Y010060D01*
X012685Y010060D01*
X012628Y010004D01*
X012487Y010004D02*
X012430Y010060D01*
X012260Y010060D01*
X012260Y009720D01*
X012260Y009834D02*
X012430Y009834D01*
X012487Y009890D01*
X012487Y010004D01*
X012373Y009834D02*
X012487Y009720D01*
X012628Y009720D02*
X012855Y009947D01*
X012855Y010004D01*
X012855Y009720D02*
X012628Y009720D01*
X012118Y008230D02*
X012175Y008174D01*
X012175Y008117D01*
X012118Y008060D01*
X012175Y008004D01*
X012175Y007947D01*
X012118Y007890D01*
X012005Y007890D01*
X011948Y007947D01*
X011807Y007947D02*
X011750Y007890D01*
X011637Y007890D01*
X011580Y007947D01*
X011580Y008174D01*
X011637Y008230D01*
X011750Y008230D01*
X011807Y008174D01*
X011948Y008174D02*
X012005Y008230D01*
X012118Y008230D01*
X012118Y008060D02*
X012062Y008060D01*
X010710Y009230D02*
X010483Y009457D01*
X010426Y009457D01*
X010370Y009400D01*
X010370Y009287D01*
X010426Y009230D01*
X010710Y009230D02*
X010710Y009457D01*
X010710Y009599D02*
X010710Y009655D01*
X010653Y009655D01*
X010653Y009599D01*
X010710Y009599D01*
X010653Y009783D02*
X010710Y009839D01*
X010710Y009953D01*
X010653Y010010D01*
X010540Y010010D01*
X010483Y009953D01*
X010483Y009896D01*
X010540Y009783D01*
X010370Y009783D01*
X010370Y010010D01*
X009720Y009390D02*
X009663Y009447D01*
X009550Y009447D01*
X009493Y009390D01*
X009493Y009334D01*
X009550Y009220D01*
X009380Y009220D01*
X009380Y009447D01*
X009720Y009390D02*
X009720Y009277D01*
X009663Y009220D01*
X008710Y009220D02*
X008710Y009447D01*
X008710Y009334D02*
X008370Y009334D01*
X008483Y009220D01*
X008426Y009589D02*
X008370Y009645D01*
X008370Y009759D01*
X008426Y009815D01*
X008653Y009589D01*
X008710Y009645D01*
X008710Y009759D01*
X008653Y009815D01*
X008426Y009815D01*
X008426Y009589D02*
X008653Y009589D01*
X007880Y010260D02*
X007880Y010374D01*
X007880Y010317D02*
X007540Y010317D01*
X007540Y010260D02*
X007540Y010374D01*
X007596Y010506D02*
X007823Y010506D01*
X007880Y010562D01*
X007880Y010676D01*
X007823Y010733D01*
X007823Y010874D02*
X007880Y010931D01*
X007880Y011044D01*
X007823Y011101D01*
X007767Y011101D01*
X007710Y011044D01*
X007710Y010987D01*
X007710Y011044D02*
X007653Y011101D01*
X007596Y011101D01*
X007540Y011044D01*
X007540Y010931D01*
X007596Y010874D01*
X007596Y010733D02*
X007540Y010676D01*
X007540Y010562D01*
X007596Y010506D01*
X007082Y007440D02*
X006968Y007327D01*
X006827Y007384D02*
X006770Y007440D01*
X006657Y007440D01*
X006600Y007384D01*
X006600Y007157D01*
X006657Y007100D01*
X006770Y007100D01*
X006827Y007157D01*
X006968Y007100D02*
X007195Y007100D01*
X007082Y007100D02*
X007082Y007440D01*
X006752Y006610D02*
X006638Y006497D01*
X006497Y006554D02*
X006497Y006440D01*
X006440Y006384D01*
X006270Y006384D01*
X006383Y006384D02*
X006497Y006270D01*
X006638Y006270D02*
X006865Y006270D01*
X006752Y006270D02*
X006752Y006610D01*
X006497Y006554D02*
X006440Y006610D01*
X006270Y006610D01*
X006270Y006270D01*
X008190Y006100D02*
X008190Y005760D01*
X008417Y005760D01*
X008558Y005760D02*
X008785Y005760D01*
X008672Y005760D02*
X008672Y006100D01*
X008558Y005987D01*
X009340Y006070D02*
X009340Y005730D01*
X009567Y005730D01*
X009708Y005787D02*
X009765Y005730D01*
X009878Y005730D01*
X009935Y005787D01*
X009935Y005844D01*
X009878Y005900D01*
X009822Y005900D01*
X009878Y005900D02*
X009935Y005957D01*
X009935Y006014D01*
X009878Y006070D01*
X009765Y006070D01*
X009708Y006014D01*
X010540Y006090D02*
X010540Y005750D01*
X010767Y005750D01*
X010908Y005807D02*
X010965Y005750D01*
X011078Y005750D01*
X011135Y005807D01*
X011135Y005920D01*
X011078Y005977D01*
X011022Y005977D01*
X010908Y005920D01*
X010908Y006090D01*
X011135Y006090D01*
X011600Y005984D02*
X011600Y005757D01*
X011657Y005700D01*
X011770Y005700D01*
X011827Y005757D01*
X011968Y005870D02*
X012195Y005870D01*
X012138Y005700D02*
X012138Y006040D01*
X011968Y005870D01*
X011827Y005984D02*
X011770Y006040D01*
X011657Y006040D01*
X011600Y005984D01*
X012390Y005947D02*
X012730Y005947D01*
X012730Y005834D02*
X012730Y006061D01*
X012503Y005834D02*
X012390Y005947D01*
X012446Y005693D02*
X012390Y005636D01*
X012390Y005522D01*
X012446Y005466D01*
X012673Y005466D01*
X012730Y005522D01*
X012730Y005636D01*
X012673Y005693D01*
X012730Y005334D02*
X012730Y005220D01*
X012730Y005277D02*
X012390Y005277D01*
X012390Y005220D02*
X012390Y005334D01*
X013707Y007160D02*
X013820Y007160D01*
X013877Y007217D01*
X014018Y007217D02*
X014018Y007330D01*
X014188Y007330D01*
X014245Y007274D01*
X014245Y007217D01*
X014188Y007160D01*
X014075Y007160D01*
X014018Y007217D01*
X014018Y007330D02*
X014132Y007444D01*
X014245Y007500D01*
X013877Y007444D02*
X013820Y007500D01*
X013707Y007500D01*
X013650Y007444D01*
X013650Y007217D01*
X013707Y007160D01*
X014860Y007990D02*
X014860Y008330D01*
X015030Y008330D01*
X015087Y008274D01*
X015087Y008160D01*
X015030Y008104D01*
X014860Y008104D01*
X014973Y008104D02*
X015087Y007990D01*
X015228Y008047D02*
X015285Y007990D01*
X015398Y007990D01*
X015455Y008047D01*
X015455Y008104D01*
X015398Y008160D01*
X015342Y008160D01*
X015398Y008160D02*
X015455Y008217D01*
X015455Y008274D01*
X015398Y008330D01*
X015285Y008330D01*
X015228Y008274D01*
X015860Y007215D02*
X015860Y006989D01*
X016030Y006989D01*
X015973Y007102D01*
X015973Y007159D01*
X016030Y007215D01*
X016143Y007215D01*
X016200Y007159D01*
X016200Y007045D01*
X016143Y006989D01*
X016200Y006847D02*
X016087Y006734D01*
X016087Y006790D02*
X016087Y006620D01*
X016200Y006620D02*
X015860Y006620D01*
X015860Y006790D01*
X015916Y006847D01*
X016030Y006847D01*
X016087Y006790D01*
X016600Y006440D02*
X016600Y006157D01*
X016657Y006100D01*
X016770Y006100D01*
X016827Y006157D01*
X016827Y006440D01*
X016968Y006327D02*
X017082Y006440D01*
X017082Y006100D01*
X017195Y006100D02*
X016968Y006100D01*
X018160Y006060D02*
X018160Y005720D01*
X018160Y005834D02*
X018330Y005834D01*
X018387Y005890D01*
X018387Y006004D01*
X018330Y006060D01*
X018160Y006060D01*
X018273Y005834D02*
X018387Y005720D01*
X018528Y005720D02*
X018528Y005777D01*
X018755Y006004D01*
X018755Y006060D01*
X018528Y006060D01*
X018500Y007150D02*
X018160Y007150D01*
X018160Y007320D01*
X018216Y007377D01*
X018330Y007377D01*
X018387Y007320D01*
X018387Y007150D01*
X018387Y007264D02*
X018500Y007377D01*
X018443Y007519D02*
X018330Y007519D01*
X018330Y007689D01*
X018387Y007745D01*
X018443Y007745D01*
X018500Y007689D01*
X018500Y007575D01*
X018443Y007519D01*
X018330Y007519D02*
X018216Y007632D01*
X018160Y007745D01*
X018166Y008030D02*
X018393Y008030D01*
X018450Y008087D01*
X018450Y008200D01*
X018393Y008257D01*
X018450Y008399D02*
X018450Y008625D01*
X018450Y008512D02*
X018110Y008512D01*
X018223Y008399D01*
X018166Y008257D02*
X018110Y008200D01*
X018110Y008087D01*
X018166Y008030D01*
X018166Y008767D02*
X018110Y008824D01*
X018110Y008937D01*
X018166Y008994D01*
X018393Y008767D01*
X018450Y008824D01*
X018450Y008937D01*
X018393Y008994D01*
X018166Y008994D01*
X018166Y008767D02*
X018393Y008767D01*
X016190Y004599D02*
X015850Y004599D01*
X016020Y004429D01*
X016020Y004655D01*
X016020Y004287D02*
X016077Y004230D01*
X016077Y004060D01*
X016190Y004060D02*
X015850Y004060D01*
X015850Y004230D01*
X015906Y004287D01*
X016020Y004287D01*
X016077Y004174D02*
X016190Y004287D01*
X017910Y003850D02*
X017910Y003510D01*
X017910Y003624D02*
X018080Y003624D01*
X018137Y003680D01*
X018137Y003794D01*
X018080Y003850D01*
X017910Y003850D01*
X018023Y003624D02*
X018137Y003510D01*
X018278Y003567D02*
X018278Y003624D01*
X018335Y003680D01*
X018448Y003680D01*
X018505Y003624D01*
X018505Y003567D01*
X018448Y003510D01*
X018335Y003510D01*
X018278Y003567D01*
X018335Y003680D02*
X018278Y003737D01*
X018278Y003794D01*
X018335Y003850D01*
X018448Y003850D01*
X018505Y003794D01*
X018505Y003737D01*
X018448Y003680D01*
D13*
X006363Y007479D02*
X006363Y007766D01*
X006077Y007766D02*
X006077Y007479D01*
X006220Y007335D01*
X006363Y007479D01*
X005903Y007479D02*
X005903Y007407D01*
X005831Y007335D01*
X005688Y007335D01*
X005616Y007407D01*
X005616Y007479D01*
X005688Y007550D01*
X005831Y007550D01*
X005903Y007479D01*
X005831Y007550D02*
X005903Y007622D01*
X005903Y007694D01*
X005831Y007766D01*
X005688Y007766D01*
X005616Y007694D01*
X005616Y007622D01*
X005688Y007550D01*
X005443Y007335D02*
X005156Y007335D01*
X005299Y007335D02*
X005299Y007766D01*
X005156Y007622D01*
X004982Y007550D02*
X004695Y007550D01*
X004522Y007479D02*
X004450Y007550D01*
X004235Y007550D01*
X004235Y007407D01*
X004307Y007335D01*
X004450Y007335D01*
X004522Y007407D01*
X004522Y007479D01*
X004378Y007694D02*
X004235Y007550D01*
X004378Y007694D02*
X004522Y007766D01*
D14*
X004750Y008750D02*
X004750Y010750D01*
X005750Y010750D01*
X005750Y008750D01*
X004750Y008750D01*
X005850Y008950D02*
X005850Y010250D01*
X006850Y010250D01*
X006850Y008950D01*
X005850Y008950D01*
X005850Y010250D02*
X005850Y010550D01*
X006850Y010550D01*
X006850Y010250D01*
X007979Y010338D02*
X007979Y011023D01*
X009121Y011023D01*
X009121Y010338D01*
X007979Y010338D01*
X009180Y011231D02*
X009182Y011252D01*
X009188Y011272D01*
X009197Y011292D01*
X009209Y011309D01*
X009224Y011323D01*
X009242Y011335D01*
X009262Y011343D01*
X009282Y011348D01*
X009303Y011349D01*
X009324Y011346D01*
X009344Y011340D01*
X009363Y011329D01*
X009380Y011316D01*
X009393Y011300D01*
X009404Y011282D01*
X009412Y011262D01*
X009416Y011242D01*
X009416Y011220D01*
X009412Y011200D01*
X009404Y011180D01*
X009393Y011162D01*
X009380Y011146D01*
X009363Y011133D01*
X009344Y011122D01*
X009324Y011116D01*
X009303Y011113D01*
X009282Y011114D01*
X009262Y011119D01*
X009242Y011127D01*
X009224Y011139D01*
X009209Y011153D01*
X009197Y011170D01*
X009188Y011190D01*
X009182Y011210D01*
X009180Y011231D01*
X009750Y011150D02*
X009750Y010350D01*
X009950Y010350D01*
X009950Y011150D01*
X009750Y011150D01*
X009950Y011150D02*
X011550Y011150D01*
X011550Y010350D01*
X009950Y010350D01*
X011050Y009050D02*
X011050Y007050D01*
X008050Y007050D01*
X008050Y009050D01*
X011050Y009050D01*
X011450Y007800D02*
X012250Y007800D01*
X012250Y006300D01*
X011450Y006300D01*
X011450Y007800D01*
X012950Y009250D02*
X012950Y010050D01*
X014550Y010050D01*
X014550Y009250D01*
X012950Y009250D01*
X013550Y009100D02*
X014350Y009100D01*
X014350Y007600D01*
X013550Y007600D01*
X013550Y009100D01*
X014750Y008450D02*
X014750Y010050D01*
X015550Y010050D01*
X015550Y008450D01*
X014750Y008450D01*
X014950Y007250D02*
X015750Y007250D01*
X015750Y005650D01*
X014950Y005650D01*
X014950Y007250D01*
X014794Y006268D02*
X014794Y004693D01*
X012826Y004693D01*
X012826Y006268D01*
X014794Y006268D01*
X014950Y005350D02*
X015750Y005350D01*
X015750Y003750D01*
X014950Y003750D01*
X014950Y005350D01*
X016280Y006120D02*
X016380Y006220D01*
X016230Y006170D02*
X016232Y006190D01*
X016238Y006208D01*
X016247Y006226D01*
X016259Y006241D01*
X016274Y006253D01*
X016292Y006262D01*
X016310Y006268D01*
X016330Y006270D01*
X016350Y006268D01*
X016368Y006262D01*
X016386Y006253D01*
X016401Y006241D01*
X016413Y006226D01*
X016422Y006208D01*
X016428Y006190D01*
X016430Y006170D01*
X016428Y006150D01*
X016422Y006132D01*
X016413Y006114D01*
X016401Y006099D01*
X016386Y006087D01*
X016368Y006078D01*
X016350Y006072D01*
X016330Y006070D01*
X016310Y006072D01*
X016292Y006078D01*
X016274Y006087D01*
X016259Y006099D01*
X016247Y006114D01*
X016238Y006132D01*
X016232Y006150D01*
X016230Y006170D01*
X016280Y006220D02*
X016380Y006120D01*
X016530Y006010D02*
X016530Y005950D01*
X016530Y006010D02*
X017230Y006010D01*
X017230Y005950D01*
X017230Y005620D02*
X017230Y005200D01*
X017230Y004870D02*
X017230Y004810D01*
X016530Y004810D01*
X016530Y004870D01*
X016210Y004250D02*
X016210Y003450D01*
X017810Y003450D01*
X017810Y004250D01*
X016210Y004250D01*
X018070Y004030D02*
X018070Y005630D01*
X018870Y005630D01*
X018870Y004030D01*
X018070Y004030D01*
X018040Y007090D02*
X016440Y007090D01*
X016440Y007890D01*
X018040Y007890D01*
X018040Y007090D01*
X017990Y008030D02*
X017990Y008830D01*
X016490Y008830D01*
X016490Y008030D01*
X017990Y008030D01*
X017750Y009750D02*
X018750Y009750D01*
X018750Y011750D01*
X017750Y011750D01*
X017750Y009750D01*
X017050Y009750D02*
X016250Y009750D01*
X016250Y011350D01*
X017050Y011350D01*
X017050Y009750D01*
X015550Y010250D02*
X012750Y010250D01*
X012750Y012250D01*
X012850Y012250D01*
X015450Y012250D01*
X015550Y012250D01*
X015550Y010250D01*
X015450Y012250D02*
X015450Y012750D01*
X015150Y012750D01*
X015150Y013750D01*
X015250Y013750D01*
X015250Y013950D01*
X013050Y013850D01*
X013050Y013750D01*
X013150Y013750D01*
X013150Y012750D01*
X012850Y012750D01*
X012850Y012250D01*
X013150Y012750D02*
X015150Y012750D01*
X015150Y013750D02*
X013150Y013750D01*
X013050Y013850D02*
X013050Y014050D01*
X015250Y014150D01*
X015250Y014350D01*
X013050Y014250D01*
X013050Y014050D01*
X013050Y014250D02*
X013050Y014450D01*
X015250Y014550D01*
X015250Y014750D01*
X013050Y014650D01*
X013050Y014450D01*
X013050Y014650D02*
X013050Y014850D01*
X015250Y014950D01*
X015250Y015150D01*
X013050Y015050D01*
X013050Y014850D01*
X013050Y015050D02*
X013050Y015250D01*
X015250Y015350D01*
X015250Y015550D01*
X013050Y015450D01*
X013050Y015250D01*
X013050Y015450D02*
X013050Y015650D01*
X015250Y015750D01*
X015250Y015950D01*
X013050Y015850D01*
X013050Y015650D01*
X013050Y015850D02*
X013050Y016050D01*
X015250Y016050D01*
X015250Y015950D01*
X015250Y015750D02*
X015250Y015550D01*
X015250Y015350D02*
X015250Y015150D01*
X015250Y014950D02*
X015250Y014750D01*
X015250Y014550D02*
X015250Y014350D01*
X015250Y014150D02*
X015250Y013950D01*
X007850Y007000D02*
X007050Y007000D01*
X007050Y005500D01*
X007850Y005500D01*
X007850Y007000D01*
X006950Y006150D02*
X006950Y004550D01*
X006150Y004550D01*
X006150Y006150D01*
X006950Y006150D01*
X007050Y005300D02*
X007850Y005300D01*
X007850Y003800D01*
X007050Y003800D01*
X007050Y005300D01*
X007950Y005650D02*
X008950Y005650D01*
X008950Y003650D01*
X007950Y003650D01*
X007950Y005650D01*
X009150Y005650D02*
X010150Y005650D01*
X010150Y003650D01*
X009150Y003650D01*
X009150Y005650D01*
X010350Y005650D02*
X011350Y005650D01*
X011350Y003650D01*
X010350Y003650D01*
X010350Y005650D01*
X011450Y005600D02*
X012250Y005600D01*
X012250Y004100D01*
X011450Y004100D01*
X011450Y005600D01*
X012469Y004480D02*
X012471Y004503D01*
X012477Y004526D01*
X012486Y004547D01*
X012499Y004567D01*
X012515Y004584D01*
X012533Y004598D01*
X012553Y004609D01*
X012575Y004617D01*
X012598Y004621D01*
X012622Y004621D01*
X012645Y004617D01*
X012667Y004609D01*
X012687Y004598D01*
X012705Y004584D01*
X012721Y004567D01*
X012734Y004547D01*
X012743Y004526D01*
X012749Y004503D01*
X012751Y004480D01*
X012749Y004457D01*
X012743Y004434D01*
X012734Y004413D01*
X012721Y004393D01*
X012705Y004376D01*
X012687Y004362D01*
X012667Y004351D01*
X012645Y004343D01*
X012622Y004339D01*
X012598Y004339D01*
X012575Y004343D01*
X012553Y004351D01*
X012533Y004362D01*
X012515Y004376D01*
X012499Y004393D01*
X012486Y004413D01*
X012477Y004434D01*
X012471Y004457D01*
X012469Y004480D01*
X005950Y003450D02*
X003950Y003450D01*
X003950Y003550D01*
X003950Y006150D01*
X003950Y006250D01*
X005950Y006250D01*
X005950Y003450D01*
X003950Y003550D02*
X003450Y003550D01*
X003450Y003850D01*
X002450Y003850D01*
X002450Y003750D01*
X002350Y003750D01*
X002250Y005950D01*
X002050Y005950D01*
X002150Y003750D01*
X002350Y003750D01*
X002450Y003850D02*
X002450Y005850D01*
X002450Y005950D01*
X002250Y005950D01*
X002050Y005950D02*
X001850Y005950D01*
X001950Y003750D01*
X002150Y003750D01*
X001950Y003750D02*
X001750Y003750D01*
X001650Y005950D01*
X001450Y005950D01*
X001550Y003750D01*
X001750Y003750D01*
X001550Y003750D02*
X001350Y003750D01*
X001250Y005950D01*
X001050Y005950D01*
X001150Y003750D01*
X001350Y003750D01*
X001150Y003750D02*
X000950Y003750D01*
X000850Y005950D01*
X000650Y005950D01*
X000750Y003750D01*
X000950Y003750D01*
X000750Y003750D02*
X000550Y003750D01*
X000450Y005950D01*
X000250Y005950D01*
X000350Y003750D01*
X000550Y003750D01*
X000350Y003750D02*
X000150Y003750D01*
X000150Y005950D01*
X000250Y005950D01*
X000450Y005950D02*
X000650Y005950D01*
X000850Y005950D02*
X001050Y005950D01*
X001250Y005950D02*
X001450Y005950D01*
X001650Y005950D02*
X001850Y005950D01*
X002450Y005850D02*
X003450Y005850D01*
X003450Y003850D01*
X003450Y005850D02*
X003450Y006150D01*
X003950Y006150D01*
D15*
X005990Y004280D02*
X005992Y004293D01*
X005997Y004306D01*
X006006Y004317D01*
X006017Y004324D01*
X006030Y004329D01*
X006043Y004330D01*
X006057Y004327D01*
X006069Y004321D01*
X006079Y004312D01*
X006086Y004300D01*
X006090Y004287D01*
X006090Y004273D01*
X006086Y004260D01*
X006079Y004248D01*
X006069Y004239D01*
X006057Y004233D01*
X006043Y004230D01*
X006030Y004231D01*
X006017Y004236D01*
X006006Y004243D01*
X005997Y004254D01*
X005992Y004267D01*
X005990Y004280D01*
X006190Y004380D02*
X006890Y004380D01*
X006890Y003780D01*
X006190Y003780D01*
X006190Y004380D01*
X006325Y003695D02*
X006460Y003695D01*
X006505Y003650D01*
X006505Y003470D01*
X006460Y003425D01*
X006325Y003425D01*
X006325Y003695D01*
X006620Y003605D02*
X006710Y003695D01*
X006710Y003425D01*
X006620Y003425D02*
X006800Y003425D01*
X007225Y003480D02*
X007270Y003435D01*
X007360Y003435D01*
X007405Y003480D01*
X007520Y003435D02*
X007700Y003615D01*
X007700Y003660D01*
X007655Y003705D01*
X007565Y003705D01*
X007520Y003660D01*
X007405Y003660D02*
X007360Y003705D01*
X007270Y003705D01*
X007225Y003660D01*
X007225Y003480D01*
X007520Y003435D02*
X007700Y003435D01*
M02*
