G75*
%MOIN*%
%OFA0B0*%
%FSLAX24Y24*%
%IPPOS*%
%LPD*%
%AMOC8*
5,1,8,0,0,1.08239X$1,22.5*
%
%ADD10R,0.0316X0.0946*%
%ADD11R,0.0592X0.0671*%
%ADD12R,0.0237X0.0237*%
%ADD13R,0.0780X0.0780*%
%ADD14C,0.0780*%
%ADD15R,0.1830X0.0680*%
%ADD16R,0.0680X0.1830*%
%ADD17R,0.0671X0.0592*%
%ADD18R,0.0324X0.0560*%
%ADD19R,0.0789X0.0710*%
%ADD20R,0.0480X0.0330*%
%ADD21C,0.0437*%
D10*
X013060Y004457D03*
X013560Y004457D03*
X014060Y004457D03*
X014560Y004457D03*
X014560Y006504D03*
X014060Y006504D03*
X013560Y006504D03*
X013060Y006504D03*
D11*
X016636Y003850D03*
X017384Y003850D03*
X017614Y007490D03*
X016866Y007490D03*
X016866Y008430D03*
X017614Y008430D03*
X014124Y009650D03*
X013376Y009650D03*
X011124Y010750D03*
X010376Y010750D03*
D12*
X006345Y004237D03*
X006345Y003923D03*
X006735Y004080D03*
D13*
X008550Y007550D03*
X005250Y010250D03*
X006350Y011250D03*
X018250Y010250D03*
D14*
X018250Y011250D03*
X010550Y008550D03*
X009550Y008550D03*
X008550Y008550D03*
X009550Y007550D03*
X010550Y007550D03*
X006350Y008250D03*
X005250Y009250D03*
D15*
X004950Y005850D03*
X004950Y004850D03*
X004950Y003850D03*
D16*
X013150Y011250D03*
X014150Y011250D03*
X015150Y011250D03*
D17*
X016650Y010924D03*
X016650Y010176D03*
X015150Y009624D03*
X015150Y008876D03*
X013950Y008724D03*
X013950Y007976D03*
X015350Y006824D03*
X015350Y006076D03*
X015350Y004924D03*
X015350Y004176D03*
X018470Y004456D03*
X018470Y005204D03*
X011850Y005224D03*
X011850Y004476D03*
X011850Y006676D03*
X011850Y007424D03*
X007450Y006624D03*
X007450Y005876D03*
X006550Y005724D03*
X006550Y004976D03*
X007450Y004924D03*
X007450Y004176D03*
D18*
X008176Y010164D03*
X008924Y010164D03*
X008928Y011196D03*
X008554Y011196D03*
X008180Y011196D03*
D19*
X008450Y005201D03*
X009650Y005201D03*
X010850Y005201D03*
X010850Y004099D03*
X009650Y004099D03*
X008450Y004099D03*
D20*
X016380Y005030D03*
X016380Y005410D03*
X016380Y005790D03*
X017380Y005790D03*
X017380Y005030D03*
D21*
X004950Y003850D03*
X004950Y005850D03*
X007550Y009350D03*
X009650Y009850D03*
X011750Y010650D03*
X013150Y011230D03*
X015160Y011240D03*
X016180Y007920D03*
X015550Y007550D03*
X014650Y007450D03*
X012770Y007160D03*
X013550Y005250D03*
X012550Y004950D03*
X011850Y003850D03*
X010850Y005299D03*
X009650Y005299D03*
X014030Y003700D03*
X014550Y003650D03*
X015250Y003630D03*
X015950Y003750D03*
X016610Y004610D03*
X015830Y005510D03*
X015200Y005500D03*
X017380Y006290D03*
X018470Y006290D03*
X018730Y003690D03*
X007250Y011350D03*
M02*
