G75*
%MOIN*%
%OFA0B0*%
%FSLAX24Y24*%
%IPPOS*%
%LPD*%
%AMOC8*
5,1,8,0,0,1.08239X$1,22.5*
%
%ADD10R,0.0236X0.0866*%
%ADD11R,0.0512X0.0591*%
%ADD12R,0.0157X0.0157*%
%ADD13R,0.1750X0.0600*%
%ADD14R,0.0600X0.1750*%
%ADD15R,0.0591X0.0512*%
%ADD16R,0.0244X0.0480*%
%ADD17R,0.0709X0.0630*%
%ADD18R,0.0400X0.0250*%
D10*
X013060Y004457D03*
X013560Y004457D03*
X014060Y004457D03*
X014560Y004457D03*
X014560Y006504D03*
X014060Y006504D03*
X013560Y006504D03*
X013060Y006504D03*
D11*
X016636Y003850D03*
X017384Y003850D03*
X017614Y007490D03*
X016866Y007490D03*
X016866Y008430D03*
X017614Y008430D03*
X014124Y009650D03*
X013376Y009650D03*
X011124Y010750D03*
X010376Y010750D03*
D12*
X006345Y004237D03*
X006345Y003923D03*
X006735Y004080D03*
D13*
X004950Y003850D03*
X004950Y004850D03*
X004950Y005850D03*
D14*
X013150Y011250D03*
X014150Y011250D03*
X015150Y011250D03*
D15*
X016650Y010924D03*
X016650Y010176D03*
X015150Y009624D03*
X015150Y008876D03*
X013950Y008724D03*
X013950Y007976D03*
X015350Y006824D03*
X015350Y006076D03*
X015350Y004924D03*
X015350Y004176D03*
X018470Y004456D03*
X018470Y005204D03*
X011850Y005224D03*
X011850Y004476D03*
X011850Y006676D03*
X011850Y007424D03*
X007450Y006624D03*
X007450Y005876D03*
X006550Y005724D03*
X006550Y004976D03*
X007450Y004924D03*
X007450Y004176D03*
D16*
X008176Y010164D03*
X008924Y010164D03*
X008928Y011196D03*
X008554Y011196D03*
X008180Y011196D03*
D17*
X008450Y005201D03*
X009650Y005201D03*
X010850Y005201D03*
X010850Y004099D03*
X009650Y004099D03*
X008450Y004099D03*
D18*
X016380Y005030D03*
X016380Y005410D03*
X016380Y005790D03*
X017380Y005790D03*
X017380Y005030D03*
M02*
